<svg width="369" height="377" viewBox="0 0 369 377" fill="none" xmlns="http://www.w3.org/2000/svg">
<g clip-path="url(#clip0_1_447)">
<rect width="368.43" height="376.604" rx="20.4359" fill="url(#paint0_linear_1_447)"/>
<path d="M557.875 -21.6036C523.955 46.7748 434.648 163.018 348.779 80.964C262.91 -1.09009 131.474 46.7748 76.4895 80.964" stroke="white" stroke-width="1.4919"/>
<path d="M49.3684 138.137V143.032H46.7339V129.841H51.5357C53.0927 129.841 54.2636 130.215 55.0484 130.962C55.8456 131.709 56.2442 132.724 56.2442 134.007C56.2442 135.265 55.8331 136.268 55.011 137.016C54.2013 137.763 53.0429 138.137 51.5357 138.137H49.3684ZM51.2555 136.025C52.8 136.025 53.5723 135.353 53.5723 134.007C53.5723 133.347 53.3917 132.843 53.0305 132.494C52.6692 132.145 52.0776 131.971 51.2555 131.971H49.3684V136.025H51.2555ZM60.5898 134.661C60.976 134.001 61.4867 133.484 62.122 133.111C62.7572 132.724 63.4672 132.531 64.252 132.531V135.353H63.4859C61.5552 135.353 60.5898 136.25 60.5898 138.043V143.032H57.9554V132.681H60.5898V134.661ZM70.4932 132.55C71.5022 132.55 72.4052 132.762 73.2024 133.185C74.0121 133.609 74.6474 134.225 75.1082 135.035C75.5691 135.832 75.7995 136.773 75.7995 137.856C75.7995 138.94 75.5691 139.88 75.1082 140.678C74.6474 141.475 74.0121 142.091 73.2024 142.527C72.4052 142.951 71.5022 143.163 70.4932 143.163C69.4843 143.163 68.575 142.951 67.7653 142.527C66.9681 142.091 66.3391 141.475 65.8782 140.678C65.4173 139.88 65.1869 138.94 65.1869 137.856C65.1869 136.773 65.4173 135.832 65.8782 135.035C66.3391 134.225 66.9681 133.609 67.7653 133.185C68.575 132.762 69.4843 132.55 70.4932 132.55ZM70.4932 134.83C69.7583 134.83 69.1355 135.091 68.6248 135.614C68.1141 136.125 67.8587 136.872 67.8587 137.856C67.8587 138.84 68.1141 139.594 68.6248 140.117C69.1355 140.628 69.7583 140.883 70.4932 140.883C71.2281 140.883 71.8509 140.628 72.3616 140.117C72.8723 139.594 73.1277 138.84 73.1277 137.856C73.1277 136.872 72.8723 136.125 72.3616 135.614C71.8509 135.091 71.2281 134.83 70.4932 134.83ZM82.1643 140.397L84.7801 132.681H87.5827L83.7525 143.032H80.5388L76.7085 132.681H79.5298L82.1643 140.397ZM88.7482 129.71C88.7482 129.287 88.8976 128.944 89.1966 128.682C89.4955 128.408 89.8879 128.271 90.3737 128.271C90.8595 128.271 91.2518 128.408 91.5508 128.682C91.8497 128.944 91.9992 129.287 91.9992 129.71C91.9992 130.121 91.8497 130.464 91.5508 130.738C91.2518 130.999 90.8595 131.13 90.3737 131.13C89.8879 131.13 89.4955 130.999 89.1966 130.738C88.8976 130.464 88.7482 130.121 88.7482 129.71ZM91.6816 132.681V143.032H89.0471V132.681H91.6816ZM98.1193 132.55C98.9913 132.55 99.7324 132.756 100.343 133.167C100.966 133.578 101.414 134.132 101.688 134.83V129.206H104.304V143.032H101.688V140.865C101.414 141.562 100.966 142.123 100.343 142.546C99.7324 142.957 98.9913 143.163 98.1193 143.163C97.2474 143.163 96.4627 142.951 95.7651 142.527C95.0676 142.104 94.5195 141.494 94.1209 140.696C93.7348 139.887 93.5417 138.94 93.5417 137.856C93.5417 136.773 93.7348 135.832 94.1209 135.035C94.5195 134.225 95.0676 133.609 95.7651 133.185C96.4627 132.762 97.2474 132.55 98.1193 132.55ZM98.9414 134.848C98.1193 134.848 97.4592 135.116 96.9609 135.652C96.4627 136.187 96.2135 136.922 96.2135 137.856C96.2135 138.791 96.4627 139.525 96.9609 140.061C97.4592 140.584 98.1193 140.846 98.9414 140.846C99.7386 140.846 100.393 140.578 100.903 140.042C101.426 139.494 101.688 138.766 101.688 137.856C101.688 136.935 101.426 136.206 100.903 135.67C100.393 135.122 99.7386 134.848 98.9414 134.848ZM116.426 137.464C116.426 137.726 116.395 138.025 116.332 138.361H108.747C108.784 139.283 109.033 139.961 109.494 140.397C109.955 140.833 110.528 141.051 111.213 141.051C111.823 141.051 112.328 140.902 112.726 140.603C113.137 140.304 113.399 139.899 113.511 139.388H116.295C116.158 140.111 115.865 140.759 115.417 141.332C114.968 141.905 114.389 142.353 113.679 142.677C112.982 143.001 112.203 143.163 111.344 143.163C110.335 143.163 109.438 142.951 108.653 142.527C107.868 142.091 107.258 141.475 106.822 140.678C106.386 139.88 106.168 138.94 106.168 137.856C106.168 136.773 106.386 135.832 106.822 135.035C107.258 134.225 107.868 133.609 108.653 133.185C109.438 132.762 110.335 132.55 111.344 132.55C112.365 132.55 113.256 132.762 114.016 133.185C114.788 133.609 115.379 134.194 115.791 134.942C116.214 135.677 116.426 136.517 116.426 137.464ZM113.773 137.202C113.81 136.355 113.586 135.714 113.1 135.278C112.627 134.842 112.041 134.624 111.344 134.624C110.634 134.624 110.036 134.842 109.55 135.278C109.064 135.714 108.796 136.355 108.747 137.202H113.773ZM124.14 132.681L126.961 139.706L129.577 132.681H132.473L126.139 147.965H123.224L125.56 142.733L121.206 132.681H124.14ZM138.497 132.55C139.506 132.55 140.409 132.762 141.206 133.185C142.016 133.609 142.651 134.225 143.112 135.035C143.573 135.832 143.804 136.773 143.804 137.856C143.804 138.94 143.573 139.88 143.112 140.678C142.651 141.475 142.016 142.091 141.206 142.527C140.409 142.951 139.506 143.163 138.497 143.163C137.488 143.163 136.579 142.951 135.769 142.527C134.972 142.091 134.343 141.475 133.882 140.678C133.421 139.88 133.191 138.94 133.191 137.856C133.191 136.773 133.421 135.832 133.882 135.035C134.343 134.225 134.972 133.609 135.769 133.185C136.579 132.762 137.488 132.55 138.497 132.55ZM138.497 134.83C137.762 134.83 137.14 135.091 136.629 135.614C136.118 136.125 135.863 136.872 135.863 137.856C135.863 138.84 136.118 139.594 136.629 140.117C137.14 140.628 137.762 140.883 138.497 140.883C139.232 140.883 139.855 140.628 140.366 140.117C140.876 139.594 141.132 138.84 141.132 137.856C141.132 136.872 140.876 136.125 140.366 135.614C139.855 135.091 139.232 134.83 138.497 134.83ZM155.568 132.681V143.032H152.934V140.939C152.66 141.637 152.205 142.185 151.57 142.583C150.947 142.97 150.224 143.163 149.402 143.163C148.207 143.163 147.254 142.77 146.544 141.986C145.834 141.201 145.479 140.105 145.479 138.697V132.681H148.094V138.398C148.094 139.22 148.306 139.862 148.73 140.323C149.153 140.771 149.726 140.995 150.449 140.995C151.208 140.995 151.813 140.752 152.261 140.267C152.709 139.781 152.934 139.083 152.934 138.174V132.681H155.568ZM160.598 134.661C160.984 134.001 161.495 133.484 162.13 133.111C162.765 132.724 163.475 132.531 164.26 132.531V135.353H163.494C161.563 135.353 160.598 136.25 160.598 138.043V143.032H157.963V132.681H160.598V134.661ZM182.959 132.531C184.218 132.531 185.208 132.924 185.93 133.708C186.665 134.481 187.033 135.583 187.033 137.016V143.032H184.417V137.315C184.417 136.517 184.211 135.907 183.8 135.483C183.402 135.047 182.847 134.83 182.137 134.83C181.402 134.83 180.817 135.06 180.381 135.521C179.945 135.982 179.727 136.654 179.727 137.539V143.032H177.111V137.315C177.111 136.517 176.906 135.907 176.495 135.483C176.096 135.047 175.542 134.83 174.832 134.83C174.097 134.83 173.511 135.06 173.076 135.521C172.64 135.982 172.422 136.654 172.422 137.539V143.032H169.787V132.681H172.422V134.643C172.696 133.97 173.125 133.453 173.711 133.092C174.309 132.718 175 132.531 175.785 132.531C176.619 132.531 177.342 132.731 177.952 133.129C178.575 133.528 179.042 134.101 179.353 134.848C179.677 134.138 180.157 133.578 180.792 133.167C181.44 132.743 182.162 132.531 182.959 132.531ZM193.402 132.55C194.274 132.55 195.021 132.756 195.644 133.167C196.267 133.578 196.709 134.132 196.97 134.83V132.681H199.586V143.032H196.97V140.865C196.709 141.562 196.267 142.123 195.644 142.546C195.021 142.957 194.274 143.163 193.402 143.163C192.53 143.163 191.745 142.951 191.047 142.527C190.35 142.104 189.802 141.494 189.403 140.696C189.017 139.887 188.824 138.94 188.824 137.856C188.824 136.773 189.017 135.832 189.403 135.035C189.802 134.225 190.35 133.609 191.047 133.185C191.745 132.762 192.53 132.55 193.402 132.55ZM194.224 134.848C193.402 134.848 192.741 135.116 192.243 135.652C191.745 136.187 191.496 136.922 191.496 137.856C191.496 138.791 191.745 139.525 192.243 140.061C192.741 140.584 193.402 140.846 194.224 140.846C195.021 140.846 195.675 140.578 196.186 140.042C196.709 139.494 196.97 138.766 196.97 137.856C196.97 136.935 196.709 136.206 196.186 135.67C195.675 135.122 195.021 134.848 194.224 134.848ZM201.675 129.71C201.675 129.287 201.824 128.944 202.123 128.682C202.422 128.408 202.814 128.271 203.3 128.271C203.786 128.271 204.178 128.408 204.477 128.682C204.776 128.944 204.926 129.287 204.926 129.71C204.926 130.121 204.776 130.464 204.477 130.738C204.178 130.999 203.786 131.13 203.3 131.13C202.814 131.13 202.422 130.999 202.123 130.738C201.824 130.464 201.675 130.121 201.675 129.71ZM204.608 132.681V143.032H201.974V132.681H204.608ZM213.157 132.531C214.353 132.531 215.306 132.924 216.016 133.708C216.726 134.493 217.081 135.596 217.081 137.016V143.032H214.465V137.315C214.465 136.492 214.253 135.857 213.83 135.409C213.406 134.948 212.827 134.717 212.092 134.717C211.345 134.717 210.747 134.96 210.298 135.446C209.85 135.932 209.626 136.629 209.626 137.539V143.032H206.991V132.681H209.626V134.755C209.9 134.057 210.348 133.515 210.971 133.129C211.606 132.731 212.335 132.531 213.157 132.531ZM227.522 132.55C228.394 132.55 229.135 132.756 229.746 133.167C230.369 133.578 230.817 134.132 231.091 134.83V129.206H233.707V143.032H231.091V140.865C230.817 141.562 230.369 142.123 229.746 142.546C229.135 142.957 228.394 143.163 227.522 143.163C226.65 143.163 225.866 142.951 225.168 142.527C224.471 142.104 223.922 141.494 223.524 140.696C223.138 139.887 222.945 138.94 222.945 137.856C222.945 136.773 223.138 135.832 223.524 135.035C223.922 134.225 224.471 133.609 225.168 133.185C225.866 132.762 226.65 132.55 227.522 132.55ZM228.344 134.848C227.522 134.848 226.862 135.116 226.364 135.652C225.866 136.187 225.616 136.922 225.616 137.856C225.616 138.791 225.866 139.525 226.364 140.061C226.862 140.584 227.522 140.846 228.344 140.846C229.142 140.846 229.796 140.578 230.306 140.042C230.829 139.494 231.091 138.766 231.091 137.856C231.091 136.935 230.829 136.206 230.306 135.67C229.796 135.122 229.142 134.848 228.344 134.848ZM245.829 137.464C245.829 137.726 245.798 138.025 245.735 138.361H238.15C238.187 139.283 238.436 139.961 238.897 140.397C239.358 140.833 239.931 141.051 240.616 141.051C241.226 141.051 241.731 140.902 242.129 140.603C242.54 140.304 242.802 139.899 242.914 139.388H245.698C245.561 140.111 245.268 140.759 244.82 141.332C244.371 141.905 243.792 142.353 243.082 142.677C242.385 143.001 241.606 143.163 240.747 143.163C239.738 143.163 238.841 142.951 238.056 142.527C237.271 142.091 236.661 141.475 236.225 140.678C235.789 139.88 235.571 138.94 235.571 137.856C235.571 136.773 235.789 135.832 236.225 135.035C236.661 134.225 237.271 133.609 238.056 133.185C238.841 132.762 239.738 132.55 240.747 132.55C241.768 132.55 242.659 132.762 243.418 133.185C244.191 133.609 244.782 134.194 245.193 134.942C245.617 135.677 245.829 136.517 245.829 137.464ZM243.176 137.202C243.213 136.355 242.989 135.714 242.503 135.278C242.03 134.842 241.444 134.624 240.747 134.624C240.037 134.624 239.439 134.842 238.953 135.278C238.467 135.714 238.199 136.355 238.15 137.202H243.176ZM253.229 140.771V143.032H251.847C250.688 143.032 249.798 142.752 249.175 142.191C248.565 141.631 248.259 140.696 248.259 139.388V134.904H246.821V132.681H248.259V130.121H250.894V132.681H253.211V134.904H250.894V139.426C250.894 139.924 250.994 140.273 251.193 140.472C251.392 140.671 251.728 140.771 252.202 140.771H253.229ZM259.18 132.55C260.052 132.55 260.799 132.756 261.422 133.167C262.045 133.578 262.487 134.132 262.748 134.83V132.681H265.364V143.032H262.748V140.865C262.487 141.562 262.045 142.123 261.422 142.546C260.799 142.957 260.052 143.163 259.18 143.163C258.308 143.163 257.523 142.951 256.825 142.527C256.128 142.104 255.58 141.494 255.181 140.696C254.795 139.887 254.602 138.94 254.602 137.856C254.602 136.773 254.795 135.832 255.181 135.035C255.58 134.225 256.128 133.609 256.825 133.185C257.523 132.762 258.308 132.55 259.18 132.55ZM260.002 134.848C259.18 134.848 258.519 135.116 258.021 135.652C257.523 136.187 257.274 136.922 257.274 137.856C257.274 138.791 257.523 139.525 258.021 140.061C258.519 140.584 259.18 140.846 260.002 140.846C260.799 140.846 261.453 140.578 261.964 140.042C262.487 139.494 262.748 138.766 262.748 137.856C262.748 136.935 262.487 136.206 261.964 135.67C261.453 135.122 260.799 134.848 260.002 134.848ZM267.453 129.71C267.453 129.287 267.602 128.944 267.901 128.682C268.2 128.408 268.592 128.271 269.078 128.271C269.564 128.271 269.956 128.408 270.255 128.682C270.554 128.944 270.704 129.287 270.704 129.71C270.704 130.121 270.554 130.464 270.255 130.738C269.956 130.999 269.564 131.13 269.078 131.13C268.592 131.13 268.2 130.999 267.901 130.738C267.602 130.464 267.453 130.121 267.453 129.71ZM270.386 132.681V143.032H267.752V132.681H270.386ZM275.404 129.206V143.032H272.769V129.206H275.404ZM281.356 132.55C282.614 132.55 283.623 132.868 284.383 133.503C285.142 134.138 285.616 134.985 285.803 136.044H283.336C283.237 135.546 283.012 135.147 282.664 134.848C282.315 134.549 281.86 134.4 281.3 134.4C280.851 134.4 280.503 134.506 280.253 134.717C280.004 134.929 279.88 135.216 279.88 135.577C279.88 135.863 279.979 136.094 280.179 136.268C280.378 136.443 280.627 136.58 280.926 136.679C281.225 136.779 281.655 136.897 282.215 137.034C283 137.209 283.635 137.395 284.121 137.595C284.619 137.782 285.043 138.087 285.392 138.51C285.753 138.921 285.933 139.482 285.933 140.192C285.933 141.076 285.585 141.793 284.887 142.341C284.202 142.889 283.274 143.163 282.103 143.163C280.758 143.163 279.68 142.864 278.871 142.266C278.061 141.655 277.569 140.79 277.395 139.669H279.917C279.979 140.179 280.204 140.584 280.59 140.883C280.976 141.17 281.48 141.313 282.103 141.313C282.552 141.313 282.894 141.207 283.131 140.995C283.367 140.771 283.486 140.485 283.486 140.136C283.486 139.837 283.38 139.594 283.168 139.407C282.969 139.22 282.714 139.077 282.402 138.977C282.103 138.878 281.673 138.759 281.113 138.622C280.341 138.448 279.712 138.274 279.226 138.099C278.752 137.912 278.341 137.62 277.993 137.221C277.656 136.822 277.488 136.274 277.488 135.577C277.488 134.68 277.831 133.951 278.516 133.391C279.201 132.83 280.148 132.55 281.356 132.55ZM290.474 132.513V135.259H287.634V132.513H290.474ZM290.474 140.285V143.032H287.634V140.285H290.474ZM304.56 140.379H299.273L298.338 143.032H295.555L300.412 129.99H303.421L308.26 143.032H305.476L304.56 140.379ZM303.85 138.38L301.907 132.812L299.964 138.38H303.85ZM313.736 132.55C314.608 132.55 315.349 132.756 315.96 133.167C316.582 133.578 317.031 134.132 317.305 134.83V129.206H319.921V143.032H317.305V140.865C317.031 141.562 316.582 142.123 315.96 142.546C315.349 142.957 314.608 143.163 313.736 143.163C312.864 143.163 312.08 142.951 311.382 142.527C310.684 142.104 310.136 141.494 309.738 140.696C309.352 139.887 309.159 138.94 309.159 137.856C309.159 136.773 309.352 135.832 309.738 135.035C310.136 134.225 310.684 133.609 311.382 133.185C312.08 132.762 312.864 132.55 313.736 132.55ZM314.558 134.848C313.736 134.848 313.076 135.116 312.578 135.652C312.08 136.187 311.83 136.922 311.83 137.856C311.83 138.791 312.08 139.525 312.578 140.061C313.076 140.584 313.736 140.846 314.558 140.846C315.355 140.846 316.009 140.578 316.52 140.042C317.043 139.494 317.305 138.766 317.305 137.856C317.305 136.935 317.043 136.206 316.52 135.67C316.009 135.122 315.355 134.848 314.558 134.848ZM326.363 132.55C327.235 132.55 327.976 132.756 328.586 133.167C329.209 133.578 329.657 134.132 329.931 134.83V129.206H332.547V143.032H329.931V140.865C329.657 141.562 329.209 142.123 328.586 142.546C327.976 142.957 327.235 143.163 326.363 143.163C325.491 143.163 324.706 142.951 324.008 142.527C323.311 142.104 322.763 141.494 322.364 140.696C321.978 139.887 321.785 138.94 321.785 137.856C321.785 136.773 321.978 135.832 322.364 135.035C322.763 134.225 323.311 133.609 324.008 133.185C324.706 132.762 325.491 132.55 326.363 132.55ZM327.185 134.848C326.363 134.848 325.702 135.116 325.204 135.652C324.706 136.187 324.457 136.922 324.457 137.856C324.457 138.791 324.706 139.525 325.204 140.061C325.702 140.584 326.363 140.846 327.185 140.846C327.982 140.846 328.636 140.578 329.147 140.042C329.67 139.494 329.931 138.766 329.931 137.856C329.931 136.935 329.67 136.206 329.147 135.67C328.636 135.122 327.982 134.848 327.185 134.848ZM52.8997 161.531C54.0955 161.531 55.0484 161.924 55.7584 162.708C56.4684 163.493 56.8234 164.596 56.8234 166.016V172.032H54.2076V166.315C54.2076 165.492 53.9958 164.857 53.5723 164.409C53.1488 163.948 52.5696 163.717 51.8347 163.717C51.0873 163.717 50.4894 163.96 50.041 164.446C49.5926 164.932 49.3684 165.629 49.3684 166.539V172.032H46.7339V161.681H49.3684V163.755C49.6424 163.057 50.0908 162.515 50.7136 162.129C51.3489 161.731 52.0776 161.531 52.8997 161.531ZM63.1959 161.55C64.0678 161.55 64.8152 161.756 65.438 162.167C66.0608 162.578 66.503 163.132 66.7645 163.83V161.681H69.3803V172.032H66.7645V169.865C66.503 170.562 66.0608 171.123 65.438 171.546C64.8152 171.957 64.0678 172.163 63.1959 172.163C62.3239 172.163 61.5392 171.951 60.8416 171.527C60.1441 171.104 59.596 170.494 59.1974 169.696C58.8113 168.887 58.6182 167.94 58.6182 166.856C58.6182 165.773 58.8113 164.832 59.1974 164.035C59.596 163.225 60.1441 162.609 60.8416 162.185C61.5392 161.762 62.3239 161.55 63.1959 161.55ZM64.018 163.848C63.1959 163.848 62.5357 164.116 62.0374 164.652C61.5392 165.187 61.2901 165.922 61.2901 166.856C61.2901 167.791 61.5392 168.525 62.0374 169.061C62.5357 169.584 63.1959 169.846 64.018 169.846C64.8152 169.846 65.4691 169.578 65.9798 169.042C66.503 168.494 66.7645 167.766 66.7645 166.856C66.7645 165.935 66.503 165.206 65.9798 164.67C65.4691 164.122 64.8152 163.848 64.018 163.848ZM84.9402 161.531C86.1983 161.531 87.1886 161.924 87.911 162.708C88.6459 163.481 89.0134 164.583 89.0134 166.016V172.032H86.3976V166.315C86.3976 165.517 86.1921 164.907 85.781 164.483C85.3824 164.047 84.8281 163.83 84.1181 163.83C83.3832 163.83 82.7978 164.06 82.3618 164.521C81.9258 164.982 81.7079 165.654 81.7079 166.539V172.032H79.0921V166.315C79.0921 165.517 78.8865 164.907 78.4755 164.483C78.0769 164.047 77.5226 163.83 76.8126 163.83C76.0777 163.83 75.4922 164.06 75.0563 164.521C74.6203 164.982 74.4023 165.654 74.4023 166.539V172.032H71.7678V161.681H74.4023V163.643C74.6764 162.97 75.1061 162.453 75.6915 162.092C76.2894 161.718 76.9807 161.531 77.7655 161.531C78.6 161.531 79.3225 161.731 79.9329 162.129C80.5557 162.528 81.0228 163.101 81.3342 163.848C81.658 163.138 82.1376 162.578 82.7729 162.167C83.4206 161.743 84.143 161.531 84.9402 161.531ZM101.062 166.464C101.062 166.726 101.031 167.025 100.969 167.361H93.3832C93.4205 168.283 93.6697 168.961 94.1305 169.397C94.5914 169.833 95.1644 170.051 95.8495 170.051C96.4598 170.051 96.9643 169.902 97.3629 169.603C97.774 169.304 98.0355 168.899 98.1476 168.388H100.932C100.795 169.111 100.502 169.759 100.053 170.332C99.605 170.905 99.0258 171.353 98.3158 171.677C97.6183 172.001 96.8398 172.163 95.9803 172.163C94.9713 172.163 94.0745 171.951 93.2897 171.527C92.505 171.091 91.8947 170.475 91.4587 169.678C91.0227 168.88 90.8047 167.94 90.8047 166.856C90.8047 165.773 91.0227 164.832 91.4587 164.035C91.8947 163.225 92.505 162.609 93.2897 162.185C94.0745 161.762 94.9713 161.55 95.9803 161.55C97.0017 161.55 97.8923 161.762 98.6521 162.185C99.4244 162.609 100.016 163.194 100.427 163.942C100.851 164.677 101.062 165.517 101.062 166.464ZM98.4092 166.202C98.4466 165.355 98.2224 164.714 97.7366 164.278C97.2633 163.842 96.6778 163.624 95.9803 163.624C95.2703 163.624 94.6724 163.842 94.1866 164.278C93.7008 164.714 93.433 165.355 93.3832 166.202H98.4092ZM104.595 170.332C104.894 171.004 105.044 171.683 105.044 172.368C105.044 173.14 104.838 173.776 104.427 174.274C104.029 174.772 103.406 175.021 102.559 175.021V174.012C102.883 174.012 103.119 173.931 103.269 173.77C103.418 173.62 103.493 173.346 103.493 172.947V172.761H102.297V170.332H104.595ZM117.182 161.55C118.054 161.55 118.839 161.762 119.536 162.185C120.234 162.609 120.776 163.225 121.162 164.035C121.56 164.832 121.76 165.773 121.76 166.856C121.76 167.94 121.56 168.887 121.162 169.696C120.776 170.494 120.234 171.104 119.536 171.527C118.839 171.951 118.054 172.163 117.182 172.163C116.31 172.163 115.563 171.957 114.94 171.546C114.329 171.123 113.893 170.562 113.632 169.865V172.032H110.997V158.206H113.632V163.83C113.893 163.132 114.329 162.578 114.94 162.167C115.563 161.756 116.31 161.55 117.182 161.55ZM116.36 163.848C115.563 163.848 114.902 164.122 114.379 164.67C113.869 165.206 113.613 165.935 113.613 166.856C113.613 167.766 113.869 168.494 114.379 169.042C114.902 169.578 115.563 169.846 116.36 169.846C117.182 169.846 117.842 169.584 118.34 169.061C118.839 168.525 119.088 167.791 119.088 166.856C119.088 165.922 118.839 165.187 118.34 164.652C117.842 164.116 117.182 163.848 116.36 163.848ZM133.527 161.681V172.032H130.892V169.939C130.618 170.637 130.163 171.185 129.528 171.583C128.905 171.97 128.183 172.163 127.361 172.163C126.165 172.163 125.212 171.77 124.502 170.986C123.792 170.201 123.437 169.105 123.437 167.697V161.681H126.053V167.398C126.053 168.22 126.265 168.862 126.688 169.323C127.112 169.771 127.685 169.995 128.407 169.995C129.167 169.995 129.771 169.752 130.219 169.267C130.668 168.781 130.892 168.083 130.892 167.174V161.681H133.527ZM139.491 161.55C140.749 161.55 141.758 161.868 142.517 162.503C143.277 163.138 143.751 163.985 143.937 165.044H141.471C141.371 164.546 141.147 164.147 140.799 163.848C140.45 163.549 139.995 163.4 139.435 163.4C138.986 163.4 138.637 163.506 138.388 163.717C138.139 163.929 138.015 164.216 138.015 164.577C138.015 164.863 138.114 165.094 138.314 165.268C138.513 165.443 138.762 165.58 139.061 165.679C139.36 165.779 139.79 165.897 140.35 166.034C141.135 166.209 141.77 166.395 142.256 166.595C142.754 166.782 143.178 167.087 143.526 167.51C143.888 167.921 144.068 168.482 144.068 169.192C144.068 170.076 143.719 170.793 143.022 171.341C142.337 171.889 141.409 172.163 140.238 172.163C138.893 172.163 137.815 171.864 137.006 171.266C136.196 170.655 135.704 169.79 135.53 168.669H138.052C138.114 169.179 138.338 169.584 138.725 169.883C139.111 170.17 139.615 170.313 140.238 170.313C140.686 170.313 141.029 170.207 141.266 169.995C141.502 169.771 141.621 169.485 141.621 169.136C141.621 168.837 141.515 168.594 141.303 168.407C141.104 168.22 140.848 168.077 140.537 167.977C140.238 167.878 139.808 167.759 139.248 167.622C138.475 167.448 137.846 167.274 137.361 167.099C136.887 166.912 136.476 166.62 136.127 166.221C135.791 165.822 135.623 165.274 135.623 164.577C135.623 163.68 135.966 162.951 136.651 162.391C137.336 161.83 138.282 161.55 139.491 161.55ZM145.731 158.71C145.731 158.287 145.881 157.944 146.18 157.682C146.479 157.408 146.871 157.271 147.357 157.271C147.843 157.271 148.235 157.408 148.534 157.682C148.833 157.944 148.982 158.287 148.982 158.71C148.982 159.121 148.833 159.464 148.534 159.738C148.235 159.999 147.843 160.13 147.357 160.13C146.871 160.13 146.479 159.999 146.18 159.738C145.881 159.464 145.731 159.121 145.731 158.71ZM148.665 161.681V172.032H146.03V161.681H148.665ZM157.214 161.531C158.41 161.531 159.363 161.924 160.073 162.708C160.783 163.493 161.138 164.596 161.138 166.016V172.032H158.522V166.315C158.522 165.492 158.31 164.857 157.887 164.409C157.463 163.948 156.884 163.717 156.149 163.717C155.402 163.717 154.804 163.96 154.355 164.446C153.907 164.932 153.683 165.629 153.683 166.539V172.032H151.048V161.681H153.683V163.755C153.957 163.057 154.405 162.515 155.028 162.129C155.663 161.731 156.392 161.531 157.214 161.531ZM173.19 166.464C173.19 166.726 173.159 167.025 173.097 167.361H165.511C165.548 168.283 165.797 168.961 166.258 169.397C166.719 169.833 167.292 170.051 167.977 170.051C168.588 170.051 169.092 169.902 169.491 169.603C169.902 169.304 170.163 168.899 170.275 168.388H173.059C172.922 169.111 172.63 169.759 172.181 170.332C171.733 170.905 171.154 171.353 170.444 171.677C169.746 172.001 168.967 172.163 168.108 172.163C167.099 172.163 166.202 171.951 165.417 171.527C164.633 171.091 164.022 170.475 163.586 169.678C163.15 168.88 162.932 167.94 162.932 166.856C162.932 165.773 163.15 164.832 163.586 164.035C164.022 163.225 164.633 162.609 165.417 162.185C166.202 161.762 167.099 161.55 168.108 161.55C169.129 161.55 170.02 161.762 170.78 162.185C171.552 162.609 172.144 163.194 172.555 163.942C172.978 164.677 173.19 165.517 173.19 166.464ZM170.537 166.202C170.574 165.355 170.35 164.714 169.864 164.278C169.391 163.842 168.806 163.624 168.108 163.624C167.398 163.624 166.8 163.842 166.314 164.278C165.829 164.714 165.561 165.355 165.511 166.202H170.537ZM178.629 161.55C179.887 161.55 180.896 161.868 181.656 162.503C182.416 163.138 182.889 163.985 183.076 165.044H180.61C180.51 164.546 180.286 164.147 179.937 163.848C179.588 163.549 179.133 163.4 178.573 163.4C178.125 163.4 177.776 163.506 177.527 163.717C177.277 163.929 177.153 164.216 177.153 164.577C177.153 164.863 177.253 165.094 177.452 165.268C177.651 165.443 177.9 165.58 178.199 165.679C178.498 165.779 178.928 165.897 179.488 166.034C180.273 166.209 180.908 166.395 181.394 166.595C181.892 166.782 182.316 167.087 182.665 167.51C183.026 167.921 183.207 168.482 183.207 169.192C183.207 170.076 182.858 170.793 182.16 171.341C181.475 171.889 180.547 172.163 179.376 172.163C178.031 172.163 176.954 171.864 176.144 171.266C175.334 170.655 174.842 169.79 174.668 168.669H177.19C177.253 169.179 177.477 169.584 177.863 169.883C178.249 170.17 178.754 170.313 179.376 170.313C179.825 170.313 180.167 170.207 180.404 169.995C180.641 169.771 180.759 169.485 180.759 169.136C180.759 168.837 180.653 168.594 180.441 168.407C180.242 168.22 179.987 168.077 179.675 167.977C179.376 167.878 178.947 167.759 178.386 167.622C177.614 167.448 176.985 167.274 176.499 167.099C176.026 166.912 175.615 166.62 175.266 166.221C174.93 165.822 174.761 165.274 174.761 164.577C174.761 163.68 175.104 162.951 175.789 162.391C176.474 161.83 177.421 161.55 178.629 161.55ZM188.737 161.55C189.996 161.55 191.004 161.868 191.764 162.503C192.524 163.138 192.997 163.985 193.184 165.044H190.718C190.618 164.546 190.394 164.147 190.045 163.848C189.697 163.549 189.242 163.4 188.681 163.4C188.233 163.4 187.884 163.506 187.635 163.717C187.386 163.929 187.261 164.216 187.261 164.577C187.261 164.863 187.361 165.094 187.56 165.268C187.76 165.443 188.009 165.58 188.308 165.679C188.607 165.779 189.036 165.897 189.597 166.034C190.382 166.209 191.017 166.395 191.503 166.595C192.001 166.782 192.424 167.087 192.773 167.51C193.134 167.921 193.315 168.482 193.315 169.192C193.315 170.076 192.966 170.793 192.269 171.341C191.584 171.889 190.656 172.163 189.485 172.163C188.14 172.163 187.062 171.864 186.252 171.266C185.443 170.655 184.951 169.79 184.776 168.669H187.299C187.361 169.179 187.585 169.584 187.971 169.883C188.358 170.17 188.862 170.313 189.485 170.313C189.933 170.313 190.276 170.207 190.512 169.995C190.749 169.771 190.867 169.485 190.867 169.136C190.867 168.837 190.762 168.594 190.55 168.407C190.351 168.22 190.095 168.077 189.784 167.977C189.485 167.878 189.055 167.759 188.495 167.622C187.722 167.448 187.093 167.274 186.607 167.099C186.134 166.912 185.723 166.62 185.374 166.221C185.038 165.822 184.87 165.274 184.87 164.577C184.87 163.68 185.212 162.951 185.897 162.391C186.583 161.83 187.529 161.55 188.737 161.55ZM196.94 170.332C197.239 171.004 197.389 171.683 197.389 172.368C197.389 173.14 197.183 173.776 196.772 174.274C196.373 174.772 195.751 175.021 194.904 175.021V174.012C195.227 174.012 195.464 173.931 195.614 173.77C195.763 173.62 195.838 173.346 195.838 172.947V172.761H194.642V170.332H196.94ZM206.911 161.55C208.169 161.55 209.178 161.868 209.938 162.503C210.697 163.138 211.171 163.985 211.358 165.044H208.891C208.792 164.546 208.567 164.147 208.219 163.848C207.87 163.549 207.415 163.4 206.855 163.4C206.406 163.4 206.058 163.506 205.808 163.717C205.559 163.929 205.435 164.216 205.435 164.577C205.435 164.863 205.534 165.094 205.734 165.268C205.933 165.443 206.182 165.58 206.481 165.679C206.78 165.779 207.21 165.897 207.77 166.034C208.555 166.209 209.19 166.395 209.676 166.595C210.174 166.782 210.598 167.087 210.947 167.51C211.308 167.921 211.488 168.482 211.488 169.192C211.488 170.076 211.14 170.793 210.442 171.341C209.757 171.889 208.829 172.163 207.658 172.163C206.313 172.163 205.235 171.864 204.426 171.266C203.616 170.655 203.124 169.79 202.95 168.669H205.472C205.534 169.179 205.759 169.584 206.145 169.883C206.531 170.17 207.035 170.313 207.658 170.313C208.107 170.313 208.449 170.207 208.686 169.995C208.922 169.771 209.041 169.485 209.041 169.136C209.041 168.837 208.935 168.594 208.723 168.407C208.524 168.22 208.269 168.077 207.957 167.977C207.658 167.878 207.228 167.759 206.668 167.622C205.896 167.448 205.267 167.274 204.781 167.099C204.307 166.912 203.896 166.62 203.548 166.221C203.211 165.822 203.043 165.274 203.043 164.577C203.043 163.68 203.386 162.951 204.071 162.391C204.756 161.83 205.703 161.55 206.911 161.55ZM219.616 161.531C220.812 161.531 221.765 161.924 222.475 162.708C223.185 163.493 223.54 164.596 223.54 166.016V172.032H220.924V166.315C220.924 165.492 220.713 164.857 220.289 164.409C219.865 163.948 219.286 163.717 218.551 163.717C217.804 163.717 217.206 163.96 216.758 164.446C216.309 164.932 216.085 165.629 216.085 166.539V172.032H213.451V158.206H216.085V163.755C216.359 163.057 216.808 162.515 217.43 162.129C218.066 161.731 218.794 161.531 219.616 161.531ZM230.641 161.55C231.65 161.55 232.553 161.762 233.35 162.185C234.16 162.609 234.795 163.225 235.256 164.035C235.717 164.832 235.948 165.773 235.948 166.856C235.948 167.94 235.717 168.88 235.256 169.678C234.795 170.475 234.16 171.091 233.35 171.527C232.553 171.951 231.65 172.163 230.641 172.163C229.632 172.163 228.723 171.951 227.913 171.527C227.116 171.091 226.487 170.475 226.026 169.678C225.565 168.88 225.335 167.94 225.335 166.856C225.335 165.773 225.565 164.832 226.026 164.035C226.487 163.225 227.116 162.609 227.913 162.185C228.723 161.762 229.632 161.55 230.641 161.55ZM230.641 163.83C229.906 163.83 229.284 164.091 228.773 164.614C228.262 165.125 228.007 165.872 228.007 166.856C228.007 167.84 228.262 168.594 228.773 169.117C229.284 169.628 229.906 169.883 230.641 169.883C231.376 169.883 231.999 169.628 232.51 169.117C233.02 168.594 233.276 167.84 233.276 166.856C233.276 165.872 233.02 165.125 232.51 164.614C231.999 164.091 231.376 163.83 230.641 163.83ZM240.444 163.661C240.83 163.001 241.341 162.484 241.976 162.111C242.611 161.724 243.321 161.531 244.106 161.531V164.353H243.34C241.409 164.353 240.444 165.25 240.444 167.043V172.032H237.809V161.681H240.444V163.661ZM251.095 169.771V172.032H249.712C248.554 172.032 247.663 171.752 247.04 171.191C246.43 170.631 246.125 169.696 246.125 168.388V163.904H244.686V161.681H246.125V159.121H248.759V161.681H251.076V163.904H248.759V168.426C248.759 168.924 248.859 169.273 249.058 169.472C249.257 169.671 249.594 169.771 250.067 169.771H251.095ZM263.244 161.55C264.116 161.55 264.9 161.762 265.598 162.185C266.296 162.609 266.837 163.225 267.224 164.035C267.622 164.832 267.821 165.773 267.821 166.856C267.821 167.94 267.622 168.887 267.224 169.696C266.837 170.494 266.296 171.104 265.598 171.527C264.9 171.951 264.116 172.163 263.244 172.163C262.372 172.163 261.624 171.957 261.002 171.546C260.391 171.123 259.955 170.562 259.694 169.865V172.032H257.059V158.206H259.694V163.83C259.955 163.132 260.391 162.578 261.002 162.167C261.624 161.756 262.372 161.55 263.244 161.55ZM262.422 163.848C261.624 163.848 260.964 164.122 260.441 164.67C259.93 165.206 259.675 165.935 259.675 166.856C259.675 167.766 259.93 168.494 260.441 169.042C260.964 169.578 261.624 169.846 262.422 169.846C263.244 169.846 263.904 169.584 264.402 169.061C264.9 168.525 265.15 167.791 265.15 166.856C265.15 165.922 264.9 165.187 264.402 164.652C263.904 164.116 263.244 163.848 262.422 163.848ZM269.387 158.71C269.387 158.287 269.536 157.944 269.835 157.682C270.134 157.408 270.527 157.271 271.012 157.271C271.498 157.271 271.89 157.408 272.189 157.682C272.488 157.944 272.638 158.287 272.638 158.71C272.638 159.121 272.488 159.464 272.189 159.738C271.89 159.999 271.498 160.13 271.012 160.13C270.527 160.13 270.134 159.999 269.835 159.738C269.536 159.464 269.387 159.121 269.387 158.71ZM272.32 161.681V172.032H269.686V161.681H272.32ZM279.487 161.55C280.496 161.55 281.399 161.762 282.196 162.185C283.006 162.609 283.641 163.225 284.102 164.035C284.563 164.832 284.793 165.773 284.793 166.856C284.793 167.94 284.563 168.88 284.102 169.678C283.641 170.475 283.006 171.091 282.196 171.527C281.399 171.951 280.496 172.163 279.487 172.163C278.478 172.163 277.568 171.951 276.759 171.527C275.962 171.091 275.333 170.475 274.872 169.678C274.411 168.88 274.18 167.94 274.18 166.856C274.18 165.773 274.411 164.832 274.872 164.035C275.333 163.225 275.962 162.609 276.759 162.185C277.568 161.762 278.478 161.55 279.487 161.55ZM279.487 163.83C278.752 163.83 278.129 164.091 277.618 164.614C277.108 165.125 276.852 165.872 276.852 166.856C276.852 167.84 277.108 168.594 277.618 169.117C278.129 169.628 278.752 169.883 279.487 169.883C280.222 169.883 280.844 169.628 281.355 169.117C281.866 168.594 282.121 167.84 282.121 166.856C282.121 165.872 281.866 165.125 281.355 164.614C280.844 164.091 280.222 163.83 279.487 163.83ZM288.318 170.332C288.617 171.004 288.766 171.683 288.766 172.368C288.766 173.14 288.561 173.776 288.15 174.274C287.751 174.772 287.128 175.021 286.281 175.021V174.012C286.605 174.012 286.842 173.931 286.991 173.77C287.141 173.62 287.215 173.346 287.215 172.947V172.761H286.02V170.332H288.318ZM51.3863 191.55C52.7191 191.55 53.8277 191.911 54.712 192.634C55.6089 193.356 56.1694 194.34 56.3936 195.586H53.6097C53.4976 195.038 53.2422 194.608 52.8436 194.297C52.445 193.973 51.9406 193.811 51.3302 193.811C50.6327 193.811 50.0472 194.072 49.5739 194.596C49.113 195.106 48.8826 195.86 48.8826 196.856C48.8826 197.853 49.113 198.613 49.5739 199.136C50.0472 199.647 50.6327 199.902 51.3302 199.902C51.9406 199.902 52.445 199.746 52.8436 199.435C53.2422 199.111 53.4976 198.675 53.6097 198.127H56.3936C56.1694 199.373 55.6089 200.357 54.712 201.079C53.8277 201.801 52.7191 202.163 51.3863 202.163C50.3773 202.163 49.4805 201.951 48.6957 201.527C47.911 201.091 47.3006 200.475 46.8647 199.678C46.4287 198.88 46.2107 197.94 46.2107 196.856C46.2107 195.773 46.4287 194.832 46.8647 194.035C47.3006 193.225 47.911 192.609 48.6957 192.185C49.4805 191.762 50.3773 191.55 51.3863 191.55ZM60.9 193.661C61.2862 193.001 61.7969 192.484 62.4321 192.111C63.0674 191.724 63.7774 191.531 64.5621 191.531V194.353H63.7961C61.8654 194.353 60.9 195.25 60.9 197.043V202.032H58.2656V191.681H60.9V193.661ZM75.7547 196.464C75.7547 196.726 75.7236 197.025 75.6613 197.361H68.0755C68.1129 198.283 68.362 198.961 68.8229 199.397C69.2838 199.833 69.8567 200.051 70.5418 200.051C71.1522 200.051 71.6567 199.902 72.0553 199.603C72.4663 199.304 72.7279 198.899 72.84 198.388H75.6239C75.4869 199.111 75.1942 199.759 74.7458 200.332C74.2974 200.905 73.7182 201.353 73.0082 201.677C72.3106 202.001 71.5321 202.163 70.6726 202.163C69.6637 202.163 68.7668 201.951 67.9821 201.527C67.1974 201.091 66.587 200.475 66.151 199.678C65.7151 198.88 65.4971 197.94 65.4971 196.856C65.4971 195.773 65.7151 194.832 66.151 194.035C66.587 193.225 67.1974 192.609 67.9821 192.185C68.7668 191.762 69.6637 191.55 70.6726 191.55C71.694 191.55 72.5846 191.762 73.3445 192.185C74.1167 192.609 74.7084 193.194 75.1195 193.942C75.543 194.677 75.7547 195.517 75.7547 196.464ZM73.1016 196.202C73.1389 195.355 72.9147 194.714 72.4289 194.278C71.9556 193.842 71.3702 193.624 70.6726 193.624C69.9626 193.624 69.3647 193.842 68.8789 194.278C68.3931 194.714 68.1253 195.355 68.0755 196.202H73.1016ZM81.6794 191.55C82.5513 191.55 83.2987 191.756 83.9215 192.167C84.5443 192.578 84.9865 193.132 85.2481 193.83V191.681H87.8639V202.032H85.2481V199.865C84.9865 200.562 84.5443 201.123 83.9215 201.546C83.2987 201.957 82.5513 202.163 81.6794 202.163C80.8075 202.163 80.0227 201.951 79.3252 201.527C78.6276 201.104 78.0796 200.494 77.681 199.696C77.2948 198.887 77.1017 197.94 77.1017 196.856C77.1017 195.773 77.2948 194.832 77.681 194.035C78.0796 193.225 78.6276 192.609 79.3252 192.185C80.0227 191.762 80.8075 191.55 81.6794 191.55ZM82.5015 193.848C81.6794 193.848 81.0192 194.116 80.521 194.652C80.0227 195.187 79.7736 195.922 79.7736 196.856C79.7736 197.791 80.0227 198.525 80.521 199.061C81.0192 199.584 81.6794 199.846 82.5015 199.846C83.2987 199.846 83.9526 199.578 84.4633 199.042C84.9865 198.494 85.2481 197.766 85.2481 196.856C85.2481 195.935 84.9865 195.206 84.4633 194.67C83.9526 194.122 83.2987 193.848 82.5015 193.848ZM95.7819 199.771V202.032H94.3993C93.2408 202.032 92.3502 201.752 91.7274 201.191C91.1171 200.631 90.8119 199.696 90.8119 198.388V193.904H89.3732V191.681H90.8119V189.121H93.4464V191.681H95.7632V193.904H93.4464V198.426C93.4464 198.924 93.546 199.273 93.7453 199.472C93.9446 199.671 94.2809 199.771 94.7543 199.771H95.7819ZM107.412 196.464C107.412 196.726 107.381 197.025 107.319 197.361H99.7329C99.7703 198.283 100.019 198.961 100.48 199.397C100.941 199.833 101.514 200.051 102.199 200.051C102.81 200.051 103.314 199.902 103.713 199.603C104.124 199.304 104.385 198.899 104.497 198.388H107.281C107.144 199.111 106.852 199.759 106.403 200.332C105.955 200.905 105.376 201.353 104.666 201.677C103.968 202.001 103.189 202.163 102.33 202.163C101.321 202.163 100.424 201.951 99.6395 201.527C98.8547 201.091 98.2444 200.475 97.8084 199.678C97.3724 198.88 97.1545 197.94 97.1545 196.856C97.1545 195.773 97.3724 194.832 97.8084 194.035C98.2444 193.225 98.8547 192.609 99.6395 192.185C100.424 191.762 101.321 191.55 102.33 191.55C103.351 191.55 104.242 191.762 105.002 192.185C105.774 192.609 106.366 193.194 106.777 193.942C107.2 194.677 107.412 195.517 107.412 196.464ZM104.759 196.202C104.796 195.355 104.572 194.714 104.086 194.278C103.613 193.842 103.028 193.624 102.33 193.624C101.62 193.624 101.022 193.842 100.536 194.278C100.051 194.714 99.7827 195.355 99.7329 196.202H104.759ZM116.92 191.55C118.178 191.55 119.187 191.868 119.947 192.503C120.707 193.138 121.18 193.985 121.367 195.044H118.9C118.801 194.546 118.577 194.147 118.228 193.848C117.879 193.549 117.424 193.4 116.864 193.4C116.415 193.4 116.067 193.506 115.818 193.717C115.568 193.929 115.444 194.216 115.444 194.577C115.444 194.863 115.544 195.094 115.743 195.268C115.942 195.443 116.191 195.58 116.49 195.679C116.789 195.779 117.219 195.897 117.779 196.034C118.564 196.209 119.199 196.395 119.685 196.595C120.183 196.782 120.607 197.087 120.956 197.51C121.317 197.921 121.498 198.482 121.498 199.192C121.498 200.076 121.149 200.793 120.451 201.341C119.766 201.889 118.838 202.163 117.667 202.163C116.322 202.163 115.245 201.864 114.435 201.266C113.625 200.655 113.133 199.79 112.959 198.669H115.481C115.544 199.179 115.768 199.584 116.154 199.883C116.54 200.17 117.044 200.313 117.667 200.313C118.116 200.313 118.458 200.207 118.695 199.995C118.932 199.771 119.05 199.485 119.05 199.136C119.05 198.837 118.944 198.594 118.732 198.407C118.533 198.22 118.278 198.077 117.966 197.977C117.667 197.878 117.238 197.759 116.677 197.622C115.905 197.448 115.276 197.274 114.79 197.099C114.317 196.912 113.906 196.62 113.557 196.221C113.22 195.822 113.052 195.274 113.052 194.577C113.052 193.68 113.395 192.951 114.08 192.391C114.765 191.83 115.712 191.55 116.92 191.55ZM123.161 188.71C123.161 188.287 123.31 187.944 123.609 187.682C123.908 187.408 124.3 187.271 124.786 187.271C125.272 187.271 125.664 187.408 125.963 187.682C126.262 187.944 126.412 188.287 126.412 188.71C126.412 189.121 126.262 189.464 125.963 189.738C125.664 189.999 125.272 190.13 124.786 190.13C124.3 190.13 123.908 189.999 123.609 189.738C123.31 189.464 123.161 189.121 123.161 188.71ZM126.094 191.681V202.032H123.46V191.681H126.094ZM134.008 199.771V202.032H132.625C131.467 202.032 130.576 201.752 129.953 201.191C129.343 200.631 129.038 199.696 129.038 198.388V193.904H127.599V191.681H129.038V189.121H131.672V191.681H133.989V193.904H131.672V198.426C131.672 198.924 131.772 199.273 131.971 199.472C132.171 199.671 132.507 199.771 132.98 199.771H134.008ZM145.638 196.464C145.638 196.726 145.607 197.025 145.545 197.361H137.959C137.996 198.283 138.245 198.961 138.706 199.397C139.167 199.833 139.74 200.051 140.425 200.051C141.036 200.051 141.54 199.902 141.939 199.603C142.35 199.304 142.611 198.899 142.723 198.388H145.507C145.37 199.111 145.078 199.759 144.629 200.332C144.181 200.905 143.602 201.353 142.892 201.677C142.194 202.001 141.416 202.163 140.556 202.163C139.547 202.163 138.65 201.951 137.866 201.527C137.081 201.091 136.47 200.475 136.034 199.678C135.599 198.88 135.381 197.94 135.381 196.856C135.381 195.773 135.599 194.832 136.034 194.035C136.47 193.225 137.081 192.609 137.866 192.185C138.65 191.762 139.547 191.55 140.556 191.55C141.577 191.55 142.468 191.762 143.228 192.185C144 192.609 144.592 193.194 145.003 193.942C145.426 194.677 145.638 195.517 145.638 196.464ZM142.985 196.202C143.022 195.355 142.798 194.714 142.312 194.278C141.839 193.842 141.254 193.624 140.556 193.624C139.846 193.624 139.248 193.842 138.762 194.278C138.277 194.714 138.009 195.355 137.959 196.202H142.985ZM154.212 188.206V202.032H151.577V188.206H154.212ZM156.296 188.71C156.296 188.287 156.446 187.944 156.744 187.682C157.043 187.408 157.436 187.271 157.922 187.271C158.407 187.271 158.8 187.408 159.099 187.682C159.398 187.944 159.547 188.287 159.547 188.71C159.547 189.121 159.398 189.464 159.099 189.738C158.8 189.999 158.407 190.13 157.922 190.13C157.436 190.13 157.043 189.999 156.744 189.738C156.446 189.464 156.296 189.121 156.296 188.71ZM159.229 191.681V202.032H156.595V191.681H159.229ZM167.779 191.531C168.974 191.531 169.927 191.924 170.637 192.708C171.347 193.493 171.702 194.596 171.702 196.016V202.032H169.086V196.315C169.086 195.492 168.875 194.857 168.451 194.409C168.028 193.948 167.448 193.717 166.714 193.717C165.966 193.717 165.368 193.96 164.92 194.446C164.471 194.932 164.247 195.629 164.247 196.539V202.032H161.613V191.681H164.247V193.755C164.521 193.057 164.97 192.515 165.592 192.129C166.228 191.731 166.956 191.531 167.779 191.531ZM180.074 202.032L176.655 197.51V202.032H174.02V188.206H176.655V195.978L180.055 191.681H183.176L178.822 196.838L183.288 202.032H180.074ZM186.753 199.285V202.032H183.913V199.285H186.753Z" fill="white"/>
<path d="M51.546 353.223C44.8197 353.223 41.4565 348.751 41.4565 339.808C41.4565 330.889 44.8197 326.43 51.546 326.43C55.1085 326.43 57.6744 327.626 59.2439 330.017C60.8134 332.409 61.5981 335.672 61.5981 339.808C61.5981 343.968 60.8134 347.244 59.2439 349.636C57.6744 352.027 55.1085 353.223 51.546 353.223ZM55.395 346.086C56.0676 344.616 56.4039 342.523 56.4039 339.808C56.4039 337.117 56.0676 335.05 55.395 333.605C54.7472 332.135 53.4643 331.4 51.546 331.4C49.6028 331.4 48.2949 332.135 47.6223 333.605C46.9746 335.05 46.6507 337.117 46.6507 339.808C46.6507 342.523 46.9746 344.616 47.6223 346.086C48.2949 347.531 49.6028 348.253 51.546 348.253C53.4643 348.253 54.7472 347.531 55.395 346.086ZM63.7594 331.774V326.841H73.251V353.223H67.7204V331.774H63.7594Z" fill="#141414" fill-opacity="0.2"/>
<rect x="45.5527" y="52.5492" width="43.2073" height="43.2073" rx="14.4024" fill="url(#paint1_linear_1_447)"/>
<path d="M65.9782 65.979H60.1394C58.8495 65.979 57.8039 67.0246 57.8039 68.3145V81.1599C57.8039 82.4498 58.8495 83.4954 60.1394 83.4954H72.9848C74.2747 83.4954 75.3204 82.4498 75.3204 81.1599V75.3211M73.6689 64.3275C74.581 63.4154 76.0598 63.4154 76.9718 64.3275C77.8839 65.2396 77.8839 66.7184 76.9718 67.6304L66.9457 77.6566H63.6427L63.6427 74.3537L73.6689 64.3275Z" stroke="#02D8D5" stroke-width="2.33553" stroke-linecap="round" stroke-linejoin="round"/>
<path d="M267.536 230.317H217.054C205.902 230.317 196.862 239.358 196.862 250.51V361.569C196.862 372.721 205.902 381.762 217.054 381.762H328.114C339.266 381.762 348.306 372.721 348.306 361.569V311.088M334.028 216.039C341.914 208.153 354.699 208.153 362.585 216.039C370.47 223.925 370.47 236.71 362.585 244.596L275.9 331.28H247.343L247.343 302.724L334.028 216.039Z" stroke="#0D0D0D" stroke-opacity="0.2" stroke-width="20.1926" stroke-linecap="round" stroke-linejoin="round"/>
</g>
<defs>
<linearGradient id="paint0_linear_1_447" x1="5.99999" y1="9" x2="368" y2="377" gradientUnits="userSpaceOnUse">
<stop stop-color="#00D6D6"/>
<stop offset="0.420024" stop-color="#05857D" stop-opacity="0.9916"/>
<stop offset="1" stop-color="#0D1401" stop-opacity="0.98"/>
</linearGradient>
<linearGradient id="paint1_linear_1_447" x1="67.1563" y1="52.5492" x2="88.76" y2="95.7565" gradientUnits="userSpaceOnUse">
<stop stop-color="#F7EFFF"/>
<stop offset="1" stop-color="#E5CDFF"/>
</linearGradient>
<clipPath id="clip0_1_447">
<rect width="368.43" height="376.604" rx="20.4359" fill="white"/>
</clipPath>
</defs>
</svg>
