<svg width="370" height="377" viewBox="0 0 370 377" fill="none" xmlns="http://www.w3.org/2000/svg">
<g clip-path="url(#clip0_1_464)">
<rect x="0.859619" width="368.43" height="376.604" rx="20.4359" fill="url(#paint0_linear_1_464)"/>
<path d="M47.9112 121.325C47.9112 121.997 47.743 122.62 47.4067 123.193C47.0704 123.754 46.5721 124.208 45.912 124.557C45.2518 124.893 44.4484 125.062 43.5017 125.062C42.5675 125.062 41.7329 124.906 40.998 124.594C40.2631 124.271 39.6714 123.81 39.223 123.212C38.787 122.614 38.5379 121.916 38.4756 121.119H41.2783C41.3406 121.655 41.5523 122.103 41.9135 122.464C42.2872 122.813 42.7792 122.988 43.3896 122.988C43.9377 122.988 44.3549 122.844 44.6414 122.558C44.9404 122.259 45.0899 121.879 45.0899 121.418C45.0899 121.007 44.9715 120.671 44.7349 120.409C44.4982 120.135 44.1992 119.917 43.838 119.755C43.4768 119.593 42.9785 119.406 42.3433 119.195C41.5212 118.921 40.8485 118.653 40.3254 118.391C39.8022 118.117 39.3538 117.725 38.9801 117.214C38.6189 116.703 38.4383 116.037 38.4383 115.215C38.4383 114.081 38.8431 113.191 39.6527 112.543C40.4749 111.883 41.5585 111.553 42.9038 111.553C44.2989 111.553 45.4075 111.889 46.2296 112.562C47.0642 113.234 47.5375 114.131 47.6496 115.252H44.8096C44.7349 114.779 44.5356 114.393 44.2117 114.094C43.8878 113.783 43.4456 113.627 42.8851 113.627C42.3993 113.627 42.007 113.758 41.708 114.019C41.4091 114.268 41.2596 114.636 41.2596 115.122C41.2596 115.508 41.3717 115.832 41.5959 116.093C41.8326 116.342 42.1253 116.548 42.4741 116.71C42.8353 116.872 43.3211 117.052 43.9314 117.252C44.7785 117.551 45.4635 117.831 45.9867 118.092C46.5223 118.354 46.977 118.746 47.3507 119.269C47.7243 119.793 47.9112 120.478 47.9112 121.325ZM59.5863 119.363C59.5863 119.624 59.5552 119.923 59.4929 120.26H51.9071C51.9445 121.181 52.1936 121.86 52.6545 122.296C53.1154 122.732 53.6884 122.95 54.3734 122.95C54.9838 122.95 55.4883 122.801 55.8869 122.502C56.2979 122.203 56.5595 121.798 56.6716 121.287H59.4556C59.3185 122.01 59.0258 122.658 58.5774 123.231C58.129 123.804 57.5498 124.252 56.8398 124.576C56.1422 124.9 55.3637 125.062 54.5042 125.062C53.4953 125.062 52.5984 124.85 51.8137 124.426C51.029 123.99 50.4186 123.374 49.9826 122.577C49.5467 121.779 49.3287 120.839 49.3287 119.755C49.3287 118.672 49.5467 117.731 49.9826 116.934C50.4186 116.124 51.029 115.508 51.8137 115.084C52.5984 114.661 53.4953 114.449 54.5042 114.449C55.5256 114.449 56.4163 114.661 57.1761 115.084C57.9484 115.508 58.54 116.093 58.9511 116.841C59.3746 117.575 59.5863 118.416 59.5863 119.363ZM56.9332 119.101C56.9706 118.254 56.7463 117.613 56.2606 117.177C55.7872 116.741 55.2018 116.523 54.5042 116.523C53.7942 116.523 53.1963 116.741 52.7105 117.177C52.2248 117.613 51.957 118.254 51.9071 119.101H56.9332ZM66.1089 114.449C67.4417 114.449 68.5503 114.81 69.4347 115.533C70.3315 116.255 70.8921 117.239 71.1163 118.485H68.3323C68.2202 117.937 67.9649 117.507 67.5663 117.196C67.1677 116.872 66.6632 116.71 66.0528 116.71C65.3553 116.71 64.7699 116.971 64.2965 117.494C63.8357 118.005 63.6052 118.759 63.6052 119.755C63.6052 120.752 63.8357 121.512 64.2965 122.035C64.7699 122.545 65.3553 122.801 66.0528 122.801C66.6632 122.801 67.1677 122.645 67.5663 122.334C67.9649 122.01 68.2202 121.574 68.3323 121.026H71.1163C70.8921 122.271 70.3315 123.255 69.4347 123.978C68.5503 124.7 67.4417 125.062 66.1089 125.062C65.1 125.062 64.2031 124.85 63.4184 124.426C62.6336 123.99 62.0233 123.374 61.5873 122.577C61.1513 121.779 60.9334 120.839 60.9334 119.755C60.9334 118.672 61.1513 117.731 61.5873 116.934C62.0233 116.124 62.6336 115.508 63.4184 115.084C64.2031 114.661 65.1 114.449 66.1089 114.449ZM77.7714 114.449C78.7803 114.449 79.6834 114.661 80.4806 115.084C81.2902 115.508 81.9255 116.124 82.3864 116.934C82.8473 117.731 83.0777 118.672 83.0777 119.755C83.0777 120.839 82.8473 121.779 82.3864 122.577C81.9255 123.374 81.2902 123.99 80.4806 124.426C79.6834 124.85 78.7803 125.062 77.7714 125.062C76.7624 125.062 75.8531 124.85 75.0435 124.426C74.2463 123.99 73.6172 123.374 73.1564 122.577C72.6955 121.779 72.465 120.839 72.465 119.755C72.465 118.672 72.6955 117.731 73.1564 116.934C73.6172 116.124 74.2463 115.508 75.0435 115.084C75.8531 114.661 76.7624 114.449 77.7714 114.449ZM77.7714 116.728C77.0365 116.728 76.4136 116.99 75.9029 117.513C75.3922 118.024 75.1369 118.771 75.1369 119.755C75.1369 120.739 75.3922 121.493 75.9029 122.016C76.4136 122.527 77.0365 122.782 77.7714 122.782C78.5063 122.782 79.1291 122.527 79.6398 122.016C80.1505 121.493 80.4058 120.739 80.4058 119.755C80.4058 118.771 80.1505 118.024 79.6398 117.513C79.1291 116.99 78.5063 116.728 77.7714 116.728ZM91.1053 114.43C92.3011 114.43 93.254 114.823 93.964 115.607C94.674 116.392 95.029 117.494 95.029 118.914V124.931H92.4132V119.213C92.4132 118.391 92.2015 117.756 91.778 117.308C91.3545 116.847 90.7753 116.616 90.0403 116.616C89.293 116.616 88.6951 116.859 88.2467 117.345C87.7982 117.831 87.574 118.528 87.574 119.438V124.931H84.9395V114.58H87.574V116.654C87.8481 115.956 88.2965 115.414 88.9193 115.028C89.5546 114.63 90.2832 114.43 91.1053 114.43ZM101.402 114.449C102.273 114.449 103.015 114.654 103.625 115.066C104.248 115.477 104.696 116.031 104.97 116.728V111.104H107.586V124.931H104.97V122.763C104.696 123.461 104.248 124.021 103.625 124.445C103.015 124.856 102.273 125.062 101.402 125.062C100.53 125.062 99.7449 124.85 99.0473 124.426C98.3498 124.003 97.8017 123.392 97.4031 122.595C97.017 121.786 96.8239 120.839 96.8239 119.755C96.8239 118.672 97.017 117.731 97.4031 116.934C97.8017 116.124 98.3498 115.508 99.0473 115.084C99.7449 114.661 100.53 114.449 101.402 114.449ZM102.224 116.747C101.402 116.747 100.741 117.015 100.243 117.551C99.7449 118.086 99.4957 118.821 99.4957 119.755C99.4957 120.689 99.7449 121.424 100.243 121.96C100.741 122.483 101.402 122.745 102.224 122.745C103.021 122.745 103.675 122.477 104.185 121.941C104.709 121.393 104.97 120.665 104.97 119.755C104.97 118.833 104.709 118.105 104.185 117.569C103.675 117.021 103.021 116.747 102.224 116.747ZM114.028 114.449C114.9 114.449 115.647 114.654 116.27 115.066C116.893 115.477 117.335 116.031 117.597 116.728V114.58H120.212V124.931H117.597V122.763C117.335 123.461 116.893 124.021 116.27 124.445C115.647 124.856 114.9 125.062 114.028 125.062C113.156 125.062 112.371 124.85 111.674 124.426C110.976 124.003 110.428 123.392 110.03 122.595C109.643 121.786 109.45 120.839 109.45 119.755C109.45 118.672 109.643 117.731 110.03 116.934C110.428 116.124 110.976 115.508 111.674 115.084C112.371 114.661 113.156 114.449 114.028 114.449ZM114.85 116.747C114.028 116.747 113.368 117.015 112.87 117.551C112.371 118.086 112.122 118.821 112.122 119.755C112.122 120.689 112.371 121.424 112.87 121.96C113.368 122.483 114.028 122.745 114.85 122.745C115.647 122.745 116.301 122.477 116.812 121.941C117.335 121.393 117.597 120.665 117.597 119.755C117.597 118.833 117.335 118.105 116.812 117.569C116.301 117.021 115.647 116.747 114.85 116.747ZM125.234 116.56C125.621 115.9 126.131 115.383 126.767 115.009C127.402 114.623 128.112 114.43 128.897 114.43V117.252H128.131C126.2 117.252 125.234 118.148 125.234 119.942V124.931H122.6V114.58H125.234V116.56ZM132.13 114.58L134.951 121.605L137.567 114.58H140.463L134.129 129.863H131.214L133.55 124.632L129.196 114.58H132.13ZM148.407 122.913H152.835V124.931H145.773V111.74H148.407V122.913ZM154.104 111.609C154.104 111.185 154.254 110.843 154.553 110.581C154.852 110.307 155.244 110.17 155.73 110.17C156.216 110.17 156.608 110.307 156.907 110.581C157.206 110.843 157.355 111.185 157.355 111.609C157.355 112.02 157.206 112.363 156.907 112.637C156.608 112.898 156.216 113.029 155.73 113.029C155.244 113.029 154.852 112.898 154.553 112.637C154.254 112.363 154.104 112.02 154.104 111.609ZM157.038 114.58V124.931H154.403V114.58H157.038ZM165.587 114.43C166.783 114.43 167.736 114.823 168.446 115.607C169.156 116.392 169.511 117.494 169.511 118.914V124.931H166.895V119.213C166.895 118.391 166.683 117.756 166.259 117.308C165.836 116.847 165.257 116.616 164.522 116.616C163.774 116.616 163.177 116.859 162.728 117.345C162.28 117.831 162.056 118.528 162.056 119.438V124.931H159.421V114.58H162.056V116.654C162.33 115.956 162.778 115.414 163.401 115.028C164.036 114.63 164.765 114.43 165.587 114.43ZM177.882 124.931L174.463 120.409V124.931H171.829V111.104H174.463V118.877L177.864 114.58H180.984L176.63 119.737L181.096 124.931H177.882ZM185.944 114.449C187.202 114.449 188.211 114.767 188.97 115.402C189.73 116.037 190.204 116.884 190.39 117.943H187.924C187.824 117.445 187.6 117.046 187.252 116.747C186.903 116.448 186.448 116.299 185.888 116.299C185.439 116.299 185.09 116.405 184.841 116.616C184.592 116.828 184.468 117.115 184.468 117.476C184.468 117.762 184.567 117.993 184.767 118.167C184.966 118.341 185.215 118.478 185.514 118.578C185.813 118.678 186.243 118.796 186.803 118.933C187.588 119.108 188.223 119.294 188.709 119.494C189.207 119.681 189.631 119.986 189.979 120.409C190.341 120.82 190.521 121.381 190.521 122.091C190.521 122.975 190.172 123.691 189.475 124.239C188.79 124.788 187.862 125.062 186.691 125.062C185.346 125.062 184.268 124.763 183.459 124.165C182.649 123.554 182.157 122.689 181.983 121.568H184.505C184.567 122.078 184.791 122.483 185.178 122.782C185.564 123.069 186.068 123.212 186.691 123.212C187.139 123.212 187.482 123.106 187.719 122.894C187.955 122.67 188.074 122.384 188.074 122.035C188.074 121.736 187.968 121.493 187.756 121.306C187.557 121.119 187.301 120.976 186.99 120.876C186.691 120.777 186.261 120.658 185.701 120.521C184.928 120.347 184.299 120.173 183.814 119.998C183.34 119.811 182.929 119.519 182.58 119.12C182.244 118.721 182.076 118.173 182.076 117.476C182.076 116.579 182.419 115.85 183.104 115.29C183.789 114.729 184.735 114.449 185.944 114.449ZM195.062 114.412V117.158H192.222V114.412H195.062ZM195.062 122.184V124.931H192.222V122.184H195.062ZM46.8835 151.278H41.5959L40.6617 153.931H37.8777L42.7356 140.889H45.7438L50.583 153.931H47.7991L46.8835 151.278ZM46.1735 149.278L44.2304 143.711L42.2872 149.278H46.1735ZM56.0594 143.449C56.9313 143.449 57.6725 143.654 58.2828 144.066C58.9056 144.477 59.3541 145.031 59.6281 145.728V140.104H62.2439V153.931H59.6281V151.763C59.3541 152.461 58.9056 153.021 58.2828 153.445C57.6725 153.856 56.9313 154.062 56.0594 154.062C55.1875 154.062 54.4027 153.85 53.7052 153.426C53.0076 153.003 52.4596 152.392 52.061 151.595C51.6748 150.786 51.4818 149.839 51.4818 148.755C51.4818 147.672 51.6748 146.731 52.061 145.934C52.4596 145.124 53.0076 144.508 53.7052 144.084C54.4027 143.661 55.1875 143.449 56.0594 143.449ZM56.8815 145.747C56.0594 145.747 55.3992 146.015 54.901 146.551C54.4027 147.086 54.1536 147.821 54.1536 148.755C54.1536 149.689 54.4027 150.424 54.901 150.96C55.3992 151.483 56.0594 151.745 56.8815 151.745C57.6787 151.745 58.3327 151.477 58.8434 150.941C59.3665 150.393 59.6281 149.665 59.6281 148.755C59.6281 147.833 59.3665 147.105 58.8434 146.569C58.3327 146.021 57.6787 145.747 56.8815 145.747ZM68.6859 143.449C69.5578 143.449 70.2989 143.654 70.9093 144.066C71.5321 144.477 71.9805 145.031 72.2546 145.728V140.104H74.8703V153.931H72.2546V151.763C71.9805 152.461 71.5321 153.021 70.9093 153.445C70.2989 153.856 69.5578 154.062 68.6859 154.062C67.8139 154.062 67.0292 153.85 66.3316 153.426C65.6341 153.003 65.086 152.392 64.6874 151.595C64.3013 150.786 64.1082 149.839 64.1082 148.755C64.1082 147.672 64.3013 146.731 64.6874 145.934C65.086 145.124 65.6341 144.508 66.3316 144.084C67.0292 143.661 67.8139 143.449 68.6859 143.449ZM69.508 145.747C68.6859 145.747 68.0257 146.015 67.5274 146.551C67.0292 147.086 66.7801 147.821 66.7801 148.755C66.7801 149.689 67.0292 150.424 67.5274 150.96C68.0257 151.483 68.6859 151.745 69.508 151.745C70.3052 151.745 70.9591 151.477 71.4698 150.941C71.993 150.393 72.2546 149.665 72.2546 148.755C72.2546 147.833 71.993 147.105 71.4698 146.569C70.9591 146.021 70.3052 145.747 69.508 145.747ZM83.1018 143.58L85.9231 150.605L88.5389 143.58H91.4349L85.101 158.863H82.1862L84.5218 153.632L80.1683 143.58H83.1018ZM97.4592 143.449C98.4681 143.449 99.3712 143.661 100.168 144.084C100.978 144.508 101.613 145.124 102.074 145.934C102.535 146.731 102.765 147.672 102.765 148.755C102.765 149.839 102.535 150.779 102.074 151.577C101.613 152.374 100.978 152.99 100.168 153.426C99.3712 153.85 98.4681 154.062 97.4592 154.062C96.4502 154.062 95.5409 153.85 94.7313 153.426C93.9341 152.99 93.305 152.374 92.8441 151.577C92.3833 150.779 92.1528 149.839 92.1528 148.755C92.1528 147.672 92.3833 146.731 92.8441 145.934C93.305 145.124 93.9341 144.508 94.7313 144.084C95.5409 143.661 96.4502 143.449 97.4592 143.449ZM97.4592 145.728C96.7242 145.728 96.1014 145.99 95.5907 146.513C95.08 147.024 94.8247 147.771 94.8247 148.755C94.8247 149.739 95.08 150.493 95.5907 151.016C96.1014 151.527 96.7242 151.782 97.4592 151.782C98.1941 151.782 98.8169 151.527 99.3276 151.016C99.8383 150.493 100.094 149.739 100.094 148.755C100.094 147.771 99.8383 147.024 99.3276 146.513C98.8169 145.99 98.1941 145.728 97.4592 145.728ZM114.53 143.58V153.931H111.896V151.838C111.621 152.536 111.167 153.084 110.532 153.482C109.909 153.869 109.186 154.062 108.364 154.062C107.168 154.062 106.215 153.669 105.505 152.884C104.795 152.1 104.44 151.004 104.44 149.596V143.58H107.056V149.297C107.056 150.119 107.268 150.761 107.692 151.222C108.115 151.67 108.688 151.894 109.41 151.894C110.17 151.894 110.774 151.651 111.223 151.166C111.671 150.68 111.896 149.982 111.896 149.073V143.58H114.53ZM119.56 145.56C119.946 144.9 120.457 144.383 121.092 144.009C121.727 143.623 122.437 143.43 123.222 143.43V146.252H122.456C120.525 146.252 119.56 147.148 119.56 148.942V153.931H116.925V143.58H119.56V145.56ZM132.318 143.449C133.576 143.449 134.585 143.767 135.345 144.402C136.104 145.037 136.578 145.884 136.765 146.943H134.298C134.199 146.445 133.974 146.046 133.626 145.747C133.277 145.448 132.822 145.299 132.262 145.299C131.813 145.299 131.464 145.405 131.215 145.616C130.966 145.828 130.842 146.115 130.842 146.476C130.842 146.762 130.941 146.993 131.141 147.167C131.34 147.341 131.589 147.478 131.888 147.578C132.187 147.678 132.617 147.796 133.177 147.933C133.962 148.108 134.597 148.294 135.083 148.494C135.581 148.681 136.005 148.986 136.353 149.409C136.715 149.82 136.895 150.381 136.895 151.091C136.895 151.975 136.547 152.691 135.849 153.239C135.164 153.788 134.236 154.062 133.065 154.062C131.72 154.062 130.642 153.763 129.833 153.165C129.023 152.554 128.531 151.689 128.357 150.568H130.879C130.941 151.078 131.165 151.483 131.552 151.782C131.938 152.069 132.442 152.212 133.065 152.212C133.513 152.212 133.856 152.106 134.093 151.894C134.329 151.67 134.448 151.384 134.448 151.035C134.448 150.736 134.342 150.493 134.13 150.306C133.931 150.119 133.675 149.976 133.364 149.876C133.065 149.777 132.635 149.658 132.075 149.521C131.302 149.347 130.673 149.173 130.188 148.998C129.714 148.811 129.303 148.519 128.955 148.12C128.618 147.721 128.45 147.173 128.45 146.476C128.45 145.579 128.793 144.85 129.478 144.29C130.163 143.729 131.109 143.449 132.318 143.449ZM144.388 151.67V153.931H143.005C141.847 153.931 140.956 153.651 140.333 153.09C139.723 152.529 139.418 151.595 139.418 150.287V145.803H137.979V143.58H139.418V141.02H142.052V143.58H144.369V145.803H142.052V150.325C142.052 150.823 142.152 151.172 142.351 151.371C142.551 151.57 142.887 151.67 143.36 151.67H144.388ZM151.067 143.449C152.076 143.449 152.979 143.661 153.776 144.084C154.586 144.508 155.221 145.124 155.682 145.934C156.143 146.731 156.373 147.672 156.373 148.755C156.373 149.839 156.143 150.779 155.682 151.577C155.221 152.374 154.586 152.99 153.776 153.426C152.979 153.85 152.076 154.062 151.067 154.062C150.058 154.062 149.149 153.85 148.339 153.426C147.542 152.99 146.913 152.374 146.452 151.577C145.991 150.779 145.761 149.839 145.761 148.755C145.761 147.672 145.991 146.731 146.452 145.934C146.913 145.124 147.542 144.508 148.339 144.084C149.149 143.661 150.058 143.449 151.067 143.449ZM151.067 145.728C150.332 145.728 149.709 145.99 149.198 146.513C148.688 147.024 148.432 147.771 148.432 148.755C148.432 149.739 148.688 150.493 149.198 151.016C149.709 151.527 150.332 151.782 151.067 151.782C151.802 151.782 152.425 151.527 152.935 151.016C153.446 150.493 153.701 149.739 153.701 148.755C153.701 147.771 153.446 147.024 152.935 146.513C152.425 145.99 151.802 145.728 151.067 145.728ZM160.87 145.56C161.256 144.9 161.766 144.383 162.402 144.009C163.037 143.623 163.747 143.43 164.532 143.43V146.252H163.766C161.835 146.252 160.87 147.148 160.87 148.942V153.931H158.235V143.58H160.87V145.56ZM175.724 148.363C175.724 148.624 175.693 148.923 175.631 149.26H168.045C168.082 150.181 168.331 150.86 168.792 151.296C169.253 151.732 169.826 151.95 170.511 151.95C171.122 151.95 171.626 151.801 172.025 151.502C172.436 151.203 172.697 150.798 172.809 150.287H175.593C175.456 151.01 175.164 151.658 174.715 152.231C174.267 152.804 173.688 153.252 172.978 153.576C172.28 153.9 171.502 154.062 170.642 154.062C169.633 154.062 168.736 153.85 167.952 153.426C167.167 152.99 166.556 152.374 166.121 151.577C165.685 150.779 165.467 149.839 165.467 148.755C165.467 147.672 165.685 146.731 166.121 145.934C166.556 145.124 167.167 144.508 167.952 144.084C168.736 143.661 169.633 143.449 170.642 143.449C171.664 143.449 172.554 143.661 173.314 144.084C174.086 144.508 174.678 145.093 175.089 145.841C175.512 146.575 175.724 147.416 175.724 148.363ZM173.071 148.101C173.108 147.254 172.884 146.613 172.398 146.177C171.925 145.741 171.34 145.523 170.642 145.523C169.932 145.523 169.334 145.741 168.848 146.177C168.363 146.613 168.095 147.254 168.045 148.101H173.071ZM181.163 143.449C182.421 143.449 183.43 143.767 184.19 144.402C184.95 145.037 185.423 145.884 185.61 146.943H183.144C183.044 146.445 182.82 146.046 182.471 145.747C182.122 145.448 181.668 145.299 181.107 145.299C180.659 145.299 180.31 145.405 180.061 145.616C179.812 145.828 179.687 146.115 179.687 146.476C179.687 146.762 179.787 146.993 179.986 147.167C180.185 147.341 180.434 147.478 180.733 147.578C181.032 147.678 181.462 147.796 182.023 147.933C182.807 148.108 183.443 148.294 183.928 148.494C184.427 148.681 184.85 148.986 185.199 149.409C185.56 149.82 185.741 150.381 185.741 151.091C185.741 151.975 185.392 152.691 184.694 153.239C184.009 153.788 183.081 154.062 181.91 154.062C180.565 154.062 179.488 153.763 178.678 153.165C177.868 152.554 177.376 151.689 177.202 150.568H179.724C179.787 151.078 180.011 151.483 180.397 151.782C180.783 152.069 181.288 152.212 181.91 152.212C182.359 152.212 182.701 152.106 182.938 151.894C183.175 151.67 183.293 151.384 183.293 151.035C183.293 150.736 183.187 150.493 182.975 150.306C182.776 150.119 182.521 149.976 182.209 149.876C181.91 149.777 181.481 149.658 180.92 149.521C180.148 149.347 179.519 149.173 179.033 148.998C178.56 148.811 178.149 148.519 177.8 148.12C177.464 147.721 177.295 147.173 177.295 146.476C177.295 145.579 177.638 144.85 178.323 144.29C179.008 143.729 179.955 143.449 181.163 143.449ZM189.366 152.231C189.665 152.903 189.814 153.582 189.814 154.267C189.814 155.039 189.609 155.675 189.198 156.173C188.799 156.671 188.176 156.92 187.329 156.92V155.911C187.653 155.911 187.89 155.83 188.039 155.668C188.189 155.519 188.263 155.245 188.263 154.846V154.659H187.068V152.231H189.366ZM199.336 143.449C200.594 143.449 201.603 143.767 202.363 144.402C203.123 145.037 203.596 145.884 203.783 146.943H201.317C201.217 146.445 200.993 146.046 200.644 145.747C200.296 145.448 199.841 145.299 199.28 145.299C198.832 145.299 198.483 145.405 198.234 145.616C197.985 145.828 197.86 146.115 197.86 146.476C197.86 146.762 197.96 146.993 198.159 147.167C198.359 147.341 198.608 147.478 198.907 147.578C199.206 147.678 199.635 147.796 200.196 147.933C200.981 148.108 201.616 148.294 202.102 148.494C202.6 148.681 203.023 148.986 203.372 149.409C203.733 149.82 203.914 150.381 203.914 151.091C203.914 151.975 203.565 152.691 202.868 153.239C202.183 153.788 201.255 154.062 200.084 154.062C198.739 154.062 197.661 153.763 196.851 153.165C196.042 152.554 195.55 151.689 195.375 150.568H197.898C197.96 151.078 198.184 151.483 198.57 151.782C198.957 152.069 199.461 152.212 200.084 152.212C200.532 152.212 200.875 152.106 201.111 151.894C201.348 151.67 201.466 151.384 201.466 151.035C201.466 150.736 201.361 150.493 201.149 150.306C200.949 150.119 200.694 149.976 200.383 149.876C200.084 149.777 199.654 149.658 199.094 149.521C198.321 149.347 197.692 149.173 197.206 148.998C196.733 148.811 196.322 148.519 195.973 148.12C195.637 147.721 195.469 147.173 195.469 146.476C195.469 145.579 195.811 144.85 196.496 144.29C197.182 143.729 198.128 143.449 199.336 143.449ZM215.611 148.363C215.611 148.624 215.58 148.923 215.517 149.26H207.931C207.969 150.181 208.218 150.86 208.679 151.296C209.14 151.732 209.713 151.95 210.398 151.95C211.008 151.95 211.513 151.801 211.911 151.502C212.322 151.203 212.584 150.798 212.696 150.287H215.48C215.343 151.01 215.05 151.658 214.602 152.231C214.153 152.804 213.574 153.252 212.864 153.576C212.167 153.9 211.388 154.062 210.529 154.062C209.52 154.062 208.623 153.85 207.838 153.426C207.053 152.99 206.443 152.374 206.007 151.577C205.571 150.779 205.353 149.839 205.353 148.755C205.353 147.672 205.571 146.731 206.007 145.934C206.443 145.124 207.053 144.508 207.838 144.084C208.623 143.661 209.52 143.449 210.529 143.449C211.55 143.449 212.441 143.661 213.2 144.084C213.973 144.508 214.564 145.093 214.975 145.841C215.399 146.575 215.611 147.416 215.611 148.363ZM212.958 148.101C212.995 147.254 212.771 146.613 212.285 146.177C211.812 145.741 211.226 145.523 210.529 145.523C209.819 145.523 209.221 145.741 208.735 146.177C208.249 146.613 207.981 147.254 207.931 148.101H212.958ZM221.535 143.449C222.407 143.449 223.155 143.654 223.777 144.066C224.4 144.477 224.842 145.031 225.104 145.728V143.58H227.72V153.931H225.104V151.763C224.842 152.461 224.4 153.021 223.777 153.445C223.155 153.856 222.407 154.062 221.535 154.062C220.663 154.062 219.879 153.85 219.181 153.426C218.484 153.003 217.936 152.392 217.537 151.595C217.151 150.786 216.958 149.839 216.958 148.755C216.958 147.672 217.151 146.731 217.537 145.934C217.936 145.124 218.484 144.508 219.181 144.084C219.879 143.661 220.663 143.449 221.535 143.449ZM222.357 145.747C221.535 145.747 220.875 146.015 220.377 146.551C219.879 147.086 219.63 147.821 219.63 148.755C219.63 149.689 219.879 150.424 220.377 150.96C220.875 151.483 221.535 151.745 222.357 151.745C223.155 151.745 223.809 151.477 224.319 150.941C224.842 150.393 225.104 149.665 225.104 148.755C225.104 147.833 224.842 147.105 224.319 146.569C223.809 146.021 223.155 145.747 222.357 145.747ZM233.676 143.449C234.934 143.449 235.943 143.767 236.703 144.402C237.463 145.037 237.936 145.884 238.123 146.943H235.657C235.557 146.445 235.333 146.046 234.984 145.747C234.635 145.448 234.18 145.299 233.62 145.299C233.172 145.299 232.823 145.405 232.574 145.616C232.325 145.828 232.2 146.115 232.2 146.476C232.2 146.762 232.3 146.993 232.499 147.167C232.698 147.341 232.947 147.478 233.246 147.578C233.545 147.678 233.975 147.796 234.535 147.933C235.32 148.108 235.955 148.294 236.441 148.494C236.94 148.681 237.363 148.986 237.712 149.409C238.073 149.82 238.254 150.381 238.254 151.091C238.254 151.975 237.905 152.691 237.207 153.239C236.522 153.788 235.594 154.062 234.423 154.062C233.078 154.062 232.001 153.763 231.191 153.165C230.381 152.554 229.889 151.689 229.715 150.568H232.237C232.3 151.078 232.524 151.483 232.91 151.782C233.296 152.069 233.801 152.212 234.423 152.212C234.872 152.212 235.214 152.106 235.451 151.894C235.688 151.67 235.806 151.384 235.806 151.035C235.806 150.736 235.7 150.493 235.488 150.306C235.289 150.119 235.034 149.976 234.722 149.876C234.423 149.777 233.994 149.658 233.433 149.521C232.661 149.347 232.032 149.173 231.546 148.998C231.073 148.811 230.662 148.519 230.313 148.12C229.977 147.721 229.808 147.173 229.808 146.476C229.808 145.579 230.151 144.85 230.836 144.29C231.521 143.729 232.468 143.449 233.676 143.449ZM244.999 143.449C246.008 143.449 246.911 143.661 247.708 144.084C248.518 144.508 249.153 145.124 249.614 145.934C250.075 146.731 250.305 147.672 250.305 148.755C250.305 149.839 250.075 150.779 249.614 151.577C249.153 152.374 248.518 152.99 247.708 153.426C246.911 153.85 246.008 154.062 244.999 154.062C243.99 154.062 243.081 153.85 242.271 153.426C241.474 152.99 240.845 152.374 240.384 151.577C239.923 150.779 239.693 149.839 239.693 148.755C239.693 147.672 239.923 146.731 240.384 145.934C240.845 145.124 241.474 144.508 242.271 144.084C243.081 143.661 243.99 143.449 244.999 143.449ZM244.999 145.728C244.264 145.728 243.641 145.99 243.131 146.513C242.62 147.024 242.364 147.771 242.364 148.755C242.364 149.739 242.62 150.493 243.131 151.016C243.641 151.527 244.264 151.782 244.999 151.782C245.734 151.782 246.357 151.527 246.867 151.016C247.378 150.493 247.633 149.739 247.633 148.755C247.633 147.771 247.378 147.024 246.867 146.513C246.357 145.99 245.734 145.728 244.999 145.728ZM258.333 143.43C259.529 143.43 260.482 143.823 261.192 144.607C261.902 145.392 262.257 146.494 262.257 147.914V153.931H259.641V148.213C259.641 147.391 259.429 146.756 259.006 146.308C258.582 145.847 258.003 145.616 257.268 145.616C256.521 145.616 255.923 145.859 255.474 146.345C255.026 146.831 254.802 147.528 254.802 148.438V153.931H252.167V143.58H254.802V145.654C255.076 144.956 255.524 144.414 256.147 144.028C256.782 143.63 257.511 143.43 258.333 143.43ZM268.629 143.449C269.501 143.449 270.248 143.654 270.871 144.066C271.494 144.477 271.936 145.031 272.198 145.728V143.58H274.814V153.931H272.198V151.763C271.936 152.461 271.494 153.021 270.871 153.445C270.248 153.856 269.501 154.062 268.629 154.062C267.757 154.062 266.972 153.85 266.275 153.426C265.577 153.003 265.029 152.392 264.631 151.595C264.245 150.786 264.051 149.839 264.051 148.755C264.051 147.672 264.245 146.731 264.631 145.934C265.029 145.124 265.577 144.508 266.275 144.084C266.972 143.661 267.757 143.449 268.629 143.449ZM269.451 145.747C268.629 145.747 267.969 146.015 267.471 146.551C266.972 147.086 266.723 147.821 266.723 148.755C266.723 149.689 266.972 150.424 267.471 150.96C267.969 151.483 268.629 151.745 269.451 151.745C270.248 151.745 270.902 151.477 271.413 150.941C271.936 150.393 272.198 149.665 272.198 148.755C272.198 147.833 271.936 147.105 271.413 146.569C270.902 146.021 270.248 145.747 269.451 145.747ZM279.836 140.104V153.931H277.201V140.104H279.836ZM38.5504 170.609C38.5504 170.185 38.6999 169.843 38.9988 169.581C39.2977 169.307 39.6901 169.17 40.1759 169.17C40.6617 169.17 41.0541 169.307 41.353 169.581C41.652 169.843 41.8014 170.185 41.8014 170.609C41.8014 171.02 41.652 171.363 41.353 171.637C41.0541 171.898 40.6617 172.029 40.1759 172.029C39.6901 172.029 39.2977 171.898 38.9988 171.637C38.6999 171.363 38.5504 171.02 38.5504 170.609ZM41.4838 173.58V183.931H38.8493V173.58H41.4838ZM49.3976 181.67V183.931H48.015C46.8565 183.931 45.9659 183.651 45.3431 183.09C44.7328 182.529 44.4276 181.595 44.4276 180.287V175.803H42.9889V173.58H44.4276V171.02H47.0621V173.58H49.3789V175.803H47.0621V180.325C47.0621 180.823 47.1617 181.172 47.361 181.371C47.5603 181.57 47.8966 181.67 48.37 181.67H49.3976ZM61.0278 178.363C61.0278 178.624 60.9967 178.923 60.9344 179.26H53.3486C53.386 180.181 53.6351 180.86 54.096 181.296C54.5568 181.732 55.1298 181.95 55.8149 181.95C56.4253 181.95 56.9297 181.801 57.3283 181.502C57.7394 181.203 58.001 180.798 58.1131 180.287H60.897C60.76 181.01 60.4673 181.658 60.0189 182.231C59.5704 182.804 58.9912 183.252 58.2812 183.576C57.5837 183.9 56.8052 184.062 55.9457 184.062C54.9367 184.062 54.0399 183.85 53.2552 183.426C52.4704 182.99 51.8601 182.374 51.4241 181.577C50.9881 180.779 50.7702 179.839 50.7702 178.755C50.7702 177.672 50.9881 176.731 51.4241 175.934C51.8601 175.124 52.4704 174.508 53.2552 174.084C54.0399 173.661 54.9367 173.449 55.9457 173.449C56.9671 173.449 57.8577 173.661 58.6175 174.084C59.3898 174.508 59.9815 175.093 60.3925 175.841C60.8161 176.575 61.0278 177.416 61.0278 178.363ZM58.3746 178.101C58.412 177.254 58.1878 176.613 57.702 176.177C57.2287 175.741 56.6432 175.523 55.9457 175.523C55.2357 175.523 54.6378 175.741 54.152 176.177C53.6662 176.613 53.3984 177.254 53.3486 178.101H58.3746ZM76.0704 173.43C77.3284 173.43 78.3187 173.823 79.0412 174.607C79.7761 175.38 80.1435 176.482 80.1435 177.914V183.931H77.5277V178.213C77.5277 177.416 77.3222 176.806 76.9112 176.382C76.5126 175.946 75.9583 175.728 75.2483 175.728C74.5134 175.728 73.9279 175.959 73.4919 176.42C73.056 176.881 72.838 177.553 72.838 178.438V183.931H70.2222V178.213C70.2222 177.416 70.0167 176.806 69.6056 176.382C69.207 175.946 68.6527 175.728 67.9427 175.728C67.2078 175.728 66.6224 175.959 66.1864 176.42C65.7504 176.881 65.5325 177.553 65.5325 178.438V183.931H62.898V173.58H65.5325V175.542C65.8065 174.869 66.2362 174.352 66.8217 173.991C67.4196 173.617 68.1109 173.43 68.8956 173.43C69.7302 173.43 70.4526 173.63 71.063 174.028C71.6858 174.427 72.1529 175 72.4643 175.747C72.7882 175.037 73.2677 174.477 73.903 174.066C74.5507 173.642 75.2732 173.43 76.0704 173.43ZM86.0267 173.449C87.2848 173.449 88.2938 173.767 89.0536 174.402C89.8134 175.037 90.2867 175.884 90.4736 176.943H88.0073C87.9076 176.445 87.6834 176.046 87.3346 175.747C86.9859 175.448 86.5312 175.299 85.9707 175.299C85.5223 175.299 85.1735 175.405 84.9244 175.616C84.6752 175.828 84.5507 176.115 84.5507 176.476C84.5507 176.762 84.6503 176.993 84.8496 177.167C85.0489 177.341 85.298 177.478 85.597 177.578C85.8959 177.678 86.3257 177.796 86.8862 177.933C87.6709 178.108 88.3062 178.294 88.792 178.494C89.2902 178.681 89.7138 178.986 90.0625 179.409C90.4238 179.82 90.6044 180.381 90.6044 181.091C90.6044 181.975 90.2556 182.691 89.5581 183.239C88.873 183.788 87.945 184.062 86.7741 184.062C85.4288 184.062 84.3514 183.763 83.5417 183.165C82.7321 182.554 82.2401 181.689 82.0657 180.568H84.588C84.6503 181.078 84.8745 181.483 85.2607 181.782C85.6468 182.069 86.1513 182.212 86.7741 182.212C87.2225 182.212 87.5651 182.106 87.8017 181.894C88.0384 181.67 88.1567 181.384 88.1567 181.035C88.1567 180.736 88.0509 180.493 87.8391 180.306C87.6398 180.119 87.3845 179.976 87.0731 179.876C86.7741 179.777 86.3444 179.658 85.7838 179.521C85.0116 179.347 84.3825 179.173 83.8967 178.998C83.4234 178.811 83.0123 178.519 82.6636 178.12C82.3273 177.721 82.1591 177.173 82.1591 176.476C82.1591 175.579 82.5016 174.85 83.1867 174.29C83.8718 173.729 84.8185 173.449 86.0267 173.449ZM94.2294 182.231C94.5284 182.903 94.6778 183.582 94.6778 184.267C94.6778 185.039 94.4723 185.675 94.0613 186.173C93.6627 186.671 93.0398 186.92 92.1928 186.92V185.911C92.5167 185.911 92.7534 185.83 92.9028 185.668C93.0523 185.519 93.127 185.245 93.127 184.846V184.659H91.9312V182.231H94.2294ZM105.415 173.449C106.424 173.449 107.327 173.661 108.124 174.084C108.933 174.508 109.569 175.124 110.03 175.934C110.49 176.731 110.721 177.672 110.721 178.755C110.721 179.839 110.49 180.779 110.03 181.577C109.569 182.374 108.933 182.99 108.124 183.426C107.327 183.85 106.424 184.062 105.415 184.062C104.406 184.062 103.496 183.85 102.687 183.426C101.889 182.99 101.26 182.374 100.8 181.577C100.339 180.779 100.108 179.839 100.108 178.755C100.108 177.672 100.339 176.731 100.8 175.934C101.26 175.124 101.889 174.508 102.687 174.084C103.496 173.661 104.406 173.449 105.415 173.449ZM105.415 175.728C104.68 175.728 104.057 175.99 103.546 176.513C103.035 177.024 102.78 177.771 102.78 178.755C102.78 179.739 103.035 180.493 103.546 181.016C104.057 181.527 104.68 181.782 105.415 181.782C106.149 181.782 106.772 181.527 107.283 181.016C107.794 180.493 108.049 179.739 108.049 178.755C108.049 177.771 107.794 177.024 107.283 176.513C106.772 175.99 106.149 175.728 105.415 175.728ZM115.217 175.56C115.603 174.9 116.114 174.383 116.749 174.009C117.385 173.623 118.095 173.43 118.879 173.43V176.252H118.113C116.183 176.252 115.217 177.148 115.217 178.942V183.931H112.583V173.58H115.217V175.56ZM128.461 173.449C129.333 173.449 130.074 173.654 130.684 174.066C131.307 174.477 131.755 175.031 132.03 175.728V170.104H134.645V183.931H132.03V181.763C131.755 182.461 131.307 183.021 130.684 183.445C130.074 183.856 129.333 184.062 128.461 184.062C127.589 184.062 126.804 183.85 126.107 183.426C125.409 183.003 124.861 182.392 124.462 181.595C124.076 180.786 123.883 179.839 123.883 178.755C123.883 177.672 124.076 176.731 124.462 175.934C124.861 175.124 125.409 174.508 126.107 174.084C126.804 173.661 127.589 173.449 128.461 173.449ZM129.283 175.747C128.461 175.747 127.801 176.015 127.302 176.551C126.804 177.086 126.555 177.821 126.555 178.755C126.555 179.689 126.804 180.424 127.302 180.96C127.801 181.483 128.461 181.745 129.283 181.745C130.08 181.745 130.734 181.477 131.245 180.941C131.768 180.393 132.03 179.665 132.03 178.755C132.03 177.833 131.768 177.105 131.245 176.569C130.734 176.021 130.08 175.747 129.283 175.747ZM136.734 170.609C136.734 170.185 136.883 169.843 137.182 169.581C137.481 169.307 137.874 169.17 138.359 169.17C138.845 169.17 139.238 169.307 139.537 169.581C139.835 169.843 139.985 170.185 139.985 170.609C139.985 171.02 139.835 171.363 139.537 171.637C139.238 171.898 138.845 172.029 138.359 172.029C137.874 172.029 137.481 171.898 137.182 171.637C136.883 171.363 136.734 171.02 136.734 170.609ZM139.667 173.58V183.931H137.033V173.58H139.667ZM145.619 173.449C146.877 173.449 147.886 173.767 148.646 174.402C149.406 175.037 149.879 175.884 150.066 176.943H147.6C147.5 176.445 147.276 176.046 146.927 175.747C146.578 175.448 146.124 175.299 145.563 175.299C145.115 175.299 144.766 175.405 144.517 175.616C144.268 175.828 144.143 176.115 144.143 176.476C144.143 176.762 144.243 176.993 144.442 177.167C144.641 177.341 144.891 177.478 145.19 177.578C145.488 177.678 145.918 177.796 146.479 177.933C147.263 178.108 147.899 178.294 148.385 178.494C148.883 178.681 149.306 178.986 149.655 179.409C150.016 179.82 150.197 180.381 150.197 181.091C150.197 181.975 149.848 182.691 149.151 183.239C148.465 183.788 147.537 184.062 146.367 184.062C145.021 184.062 143.944 183.763 143.134 183.165C142.325 182.554 141.833 181.689 141.658 180.568H144.181C144.243 181.078 144.467 181.483 144.853 181.782C145.239 182.069 145.744 182.212 146.367 182.212C146.815 182.212 147.158 182.106 147.394 181.894C147.631 181.67 147.749 181.384 147.749 181.035C147.749 180.736 147.643 180.493 147.432 180.306C147.232 180.119 146.977 179.976 146.666 179.876C146.367 179.777 145.937 179.658 145.376 179.521C144.604 179.347 143.975 179.173 143.489 178.998C143.016 178.811 142.605 178.519 142.256 178.12C141.92 177.721 141.752 177.173 141.752 176.476C141.752 175.579 142.094 174.85 142.779 174.29C143.464 173.729 144.411 173.449 145.619 173.449ZM156.811 173.449C158.144 173.449 159.253 173.81 160.137 174.533C161.034 175.255 161.595 176.239 161.819 177.485H159.035C158.923 176.937 158.667 176.507 158.269 176.196C157.87 175.872 157.366 175.71 156.755 175.71C156.058 175.71 155.472 175.971 154.999 176.494C154.538 177.005 154.308 177.759 154.308 178.755C154.308 179.752 154.538 180.512 154.999 181.035C155.472 181.545 156.058 181.801 156.755 181.801C157.366 181.801 157.87 181.645 158.269 181.334C158.667 181.01 158.923 180.574 159.035 180.026H161.819C161.595 181.271 161.034 182.255 160.137 182.978C159.253 183.7 158.144 184.062 156.811 184.062C155.802 184.062 154.906 183.85 154.121 183.426C153.336 182.99 152.726 182.374 152.29 181.577C151.854 180.779 151.636 179.839 151.636 178.755C151.636 177.672 151.854 176.731 152.29 175.934C152.726 175.124 153.336 174.508 154.121 174.084C154.906 173.661 155.802 173.449 156.811 173.449ZM168.474 173.449C169.483 173.449 170.386 173.661 171.183 174.084C171.993 174.508 172.628 175.124 173.089 175.934C173.55 176.731 173.78 177.672 173.78 178.755C173.78 179.839 173.55 180.779 173.089 181.577C172.628 182.374 171.993 182.99 171.183 183.426C170.386 183.85 169.483 184.062 168.474 184.062C167.465 184.062 166.556 183.85 165.746 183.426C164.949 182.99 164.32 182.374 163.859 181.577C163.398 180.779 163.168 179.839 163.168 178.755C163.168 177.672 163.398 176.731 163.859 175.934C164.32 175.124 164.949 174.508 165.746 174.084C166.556 173.661 167.465 173.449 168.474 173.449ZM168.474 175.728C167.739 175.728 167.116 175.99 166.605 176.513C166.095 177.024 165.839 177.771 165.839 178.755C165.839 179.739 166.095 180.493 166.605 181.016C167.116 181.527 167.739 181.782 168.474 181.782C169.209 181.782 169.832 181.527 170.342 181.016C170.853 180.493 171.108 179.739 171.108 178.755C171.108 177.771 170.853 177.024 170.342 176.513C169.832 175.99 169.209 175.728 168.474 175.728ZM185.545 173.58V183.931H182.91V181.838C182.636 182.536 182.182 183.084 181.546 183.482C180.923 183.869 180.201 184.062 179.379 184.062C178.183 184.062 177.23 183.669 176.52 182.884C175.81 182.1 175.455 181.004 175.455 179.596V173.58H178.071V179.297C178.071 180.119 178.283 180.761 178.706 181.222C179.13 181.67 179.703 181.894 180.425 181.894C181.185 181.894 181.789 181.651 182.238 181.166C182.686 180.68 182.91 179.982 182.91 179.073V173.58H185.545ZM194.106 173.43C195.302 173.43 196.255 173.823 196.965 174.607C197.675 175.392 198.03 176.494 198.03 177.914V183.931H195.414V178.213C195.414 177.391 195.202 176.756 194.778 176.308C194.355 175.847 193.776 175.616 193.041 175.616C192.293 175.616 191.696 175.859 191.247 176.345C190.799 176.831 190.575 177.528 190.575 178.438V183.931H187.94V173.58H190.575V175.654C190.849 174.956 191.297 174.414 191.92 174.028C192.555 173.63 193.284 173.43 194.106 173.43ZM205.878 181.67V183.931H204.495C203.337 183.931 202.446 183.651 201.824 183.09C201.213 182.529 200.908 181.595 200.908 180.287V175.803H199.469V173.58H200.908V171.02H203.543V173.58H205.859V175.803H203.543V180.325C203.543 180.823 203.642 181.172 203.842 181.371C204.041 181.57 204.377 181.67 204.85 181.67H205.878ZM211.342 173.449C212.601 173.449 213.61 173.767 214.369 174.402C215.129 175.037 215.603 175.884 215.789 176.943H213.323C213.223 176.445 212.999 176.046 212.65 175.747C212.302 175.448 211.847 175.299 211.286 175.299C210.838 175.299 210.489 175.405 210.24 175.616C209.991 175.828 209.866 176.115 209.866 176.476C209.866 176.762 209.966 176.993 210.165 177.167C210.365 177.341 210.614 177.478 210.913 177.578C211.212 177.678 211.641 177.796 212.202 177.933C212.987 178.108 213.622 178.294 214.108 178.494C214.606 178.681 215.03 178.986 215.378 179.409C215.74 179.82 215.92 180.381 215.92 181.091C215.92 181.975 215.571 182.691 214.874 183.239C214.189 183.788 213.261 184.062 212.09 184.062C210.745 184.062 209.667 183.763 208.857 183.165C208.048 182.554 207.556 181.689 207.381 180.568H209.904C209.966 181.078 210.19 181.483 210.576 181.782C210.963 182.069 211.467 182.212 212.09 182.212C212.538 182.212 212.881 182.106 213.118 181.894C213.354 181.67 213.473 181.384 213.473 181.035C213.473 180.736 213.367 180.493 213.155 180.306C212.956 180.119 212.7 179.976 212.389 179.876C212.09 179.777 211.66 179.658 211.1 179.521C210.327 179.347 209.698 179.173 209.212 178.998C208.739 178.811 208.328 178.519 207.979 178.12C207.643 177.721 207.475 177.173 207.475 176.476C207.475 175.579 207.817 174.85 208.502 174.29C209.188 173.729 210.134 173.449 211.342 173.449ZM227.071 171.786C226.298 171.736 225.757 171.848 225.445 172.122C225.134 172.396 224.978 172.876 224.978 173.561V173.58H227.071V175.803H224.978V183.931H222.344V175.803H221.017V173.58H222.344V173.337C222.344 172.104 222.692 171.157 223.39 170.497C224.1 169.824 225.146 169.488 226.529 169.488C226.766 169.488 226.946 169.494 227.071 169.507V171.786ZM231.282 175.56C231.668 174.9 232.179 174.383 232.814 174.009C233.449 173.623 234.159 173.43 234.944 173.43V176.252H234.178C232.247 176.252 231.282 177.148 231.282 178.942V183.931H228.648V173.58H231.282V175.56ZM241.185 173.449C242.194 173.449 243.097 173.661 243.895 174.084C244.704 174.508 245.34 175.124 245.8 175.934C246.261 176.731 246.492 177.672 246.492 178.755C246.492 179.839 246.261 180.779 245.8 181.577C245.34 182.374 244.704 182.99 243.895 183.426C243.097 183.85 242.194 184.062 241.185 184.062C240.177 184.062 239.267 183.85 238.458 183.426C237.66 182.99 237.031 182.374 236.57 181.577C236.11 180.779 235.879 179.839 235.879 178.755C235.879 177.672 236.11 176.731 236.57 175.934C237.031 175.124 237.66 174.508 238.458 174.084C239.267 173.661 240.177 173.449 241.185 173.449ZM241.185 175.728C240.451 175.728 239.828 175.99 239.317 176.513C238.806 177.024 238.551 177.771 238.551 178.755C238.551 179.739 238.806 180.493 239.317 181.016C239.828 181.527 240.451 181.782 241.185 181.782C241.92 181.782 242.543 181.527 243.054 181.016C243.565 180.493 243.82 179.739 243.82 178.755C243.82 177.771 243.565 177.024 243.054 176.513C242.543 175.99 241.92 175.728 241.185 175.728ZM261.526 173.43C262.784 173.43 263.774 173.823 264.497 174.607C265.232 175.38 265.599 176.482 265.599 177.914V183.931H262.983V178.213C262.983 177.416 262.778 176.806 262.367 176.382C261.968 175.946 261.414 175.728 260.704 175.728C259.969 175.728 259.384 175.959 258.948 176.42C258.512 176.881 258.294 177.553 258.294 178.438V183.931H255.678V178.213C255.678 177.416 255.472 176.806 255.061 176.382C254.663 175.946 254.108 175.728 253.398 175.728C252.663 175.728 252.078 175.959 251.642 176.42C251.206 176.881 250.988 177.553 250.988 178.438V183.931H248.354V173.58H250.988V175.542C251.262 174.869 251.692 174.352 252.277 173.991C252.875 173.617 253.567 173.43 254.351 173.43C255.186 173.43 255.908 173.63 256.519 174.028C257.141 174.427 257.609 175 257.92 175.747C258.244 175.037 258.723 174.477 259.359 174.066C260.006 173.642 260.729 173.43 261.526 173.43ZM40.6243 202.58L43.4456 209.605L46.0614 202.58H48.9575L42.6235 217.863H39.7088L42.0443 212.632L37.6909 202.58H40.6243ZM54.9817 202.449C55.9907 202.449 56.8937 202.661 57.6909 203.084C58.5006 203.508 59.1358 204.124 59.5967 204.934C60.0576 205.731 60.288 206.672 60.288 207.755C60.288 208.839 60.0576 209.779 59.5967 210.577C59.1358 211.374 58.5006 211.99 57.6909 212.426C56.8937 212.85 55.9907 213.062 54.9817 213.062C53.9728 213.062 53.0635 212.85 52.2538 212.426C51.4566 211.99 50.8276 211.374 50.3667 210.577C49.9058 209.779 49.6754 208.839 49.6754 207.755C49.6754 206.672 49.9058 205.731 50.3667 204.934C50.8276 204.124 51.4566 203.508 52.2538 203.084C53.0635 202.661 53.9728 202.449 54.9817 202.449ZM54.9817 204.728C54.2468 204.728 53.624 204.99 53.1133 205.513C52.6026 206.024 52.3472 206.771 52.3472 207.755C52.3472 208.739 52.6026 209.493 53.1133 210.016C53.624 210.527 54.2468 210.782 54.9817 210.782C55.7166 210.782 56.3394 210.527 56.8501 210.016C57.3608 209.493 57.6162 208.739 57.6162 207.755C57.6162 206.771 57.3608 206.024 56.8501 205.513C56.3394 204.99 55.7166 204.728 54.9817 204.728ZM72.0525 202.58V212.931H69.4181V210.838C69.144 211.536 68.6894 212.084 68.0541 212.482C67.4313 212.869 66.7088 213.062 65.8867 213.062C64.6909 213.062 63.738 212.669 63.028 211.884C62.318 211.1 61.963 210.004 61.963 208.596V202.58H64.5788V208.297C64.5788 209.119 64.7906 209.761 65.2141 210.222C65.6376 210.67 66.2106 210.894 66.9331 210.894C67.6929 210.894 68.297 210.651 68.7454 210.166C69.1938 209.68 69.4181 208.982 69.4181 208.073V202.58H72.0525ZM77.0824 204.56C77.4685 203.9 77.9792 203.383 78.6145 203.009C79.2498 202.623 79.9598 202.43 80.7445 202.43V205.252H79.9784C78.0477 205.252 77.0824 206.148 77.0824 207.942V212.931H74.4479V202.58H77.0824V204.56ZM89.8402 202.449C91.0983 202.449 92.1072 202.767 92.8671 203.402C93.6269 204.037 94.1002 204.884 94.2871 205.943H91.8207C91.7211 205.445 91.4969 205.046 91.1481 204.747C90.7993 204.448 90.3447 204.299 89.7842 204.299C89.3357 204.299 88.987 204.405 88.7378 204.616C88.4887 204.828 88.3642 205.115 88.3642 205.476C88.3642 205.762 88.4638 205.993 88.6631 206.167C88.8624 206.341 89.1115 206.478 89.4105 206.578C89.7094 206.678 90.1392 206.796 90.6997 206.933C91.4844 207.108 92.1197 207.294 92.6055 207.494C93.1037 207.681 93.5272 207.986 93.876 208.409C94.2372 208.82 94.4179 209.381 94.4179 210.091C94.4179 210.975 94.0691 211.691 93.3715 212.239C92.6865 212.788 91.7585 213.062 90.5876 213.062C89.2423 213.062 88.1649 212.763 87.3552 212.165C86.5456 211.554 86.0535 210.689 85.8792 209.568H88.4015C88.4638 210.078 88.688 210.483 89.0742 210.782C89.4603 211.069 89.9648 211.212 90.5876 211.212C91.036 211.212 91.3786 211.106 91.6152 210.894C91.8519 210.67 91.9702 210.384 91.9702 210.035C91.9702 209.736 91.8643 209.493 91.6526 209.306C91.4533 209.119 91.1979 208.976 90.8865 208.876C90.5876 208.777 90.1578 208.658 89.5973 208.521C88.825 208.347 88.196 208.173 87.7102 207.998C87.2369 207.811 86.8258 207.519 86.4771 207.12C86.1407 206.721 85.9726 206.173 85.9726 205.476C85.9726 204.579 86.3151 203.85 87.0002 203.29C87.6853 202.729 88.632 202.449 89.8402 202.449ZM101.911 210.67V212.931H100.528C99.3695 212.931 98.4789 212.651 97.856 212.09C97.2457 211.529 96.9405 210.595 96.9405 209.287V204.803H95.5018V202.58H96.9405V200.02H99.575V202.58H101.892V204.803H99.575V209.325C99.575 209.823 99.6746 210.172 99.8739 210.371C100.073 210.57 100.41 210.67 100.883 210.67H101.911ZM108.589 202.449C109.598 202.449 110.501 202.661 111.299 203.084C112.108 203.508 112.744 204.124 113.204 204.934C113.665 205.731 113.896 206.672 113.896 207.755C113.896 208.839 113.665 209.779 113.204 210.577C112.744 211.374 112.108 211.99 111.299 212.426C110.501 212.85 109.598 213.062 108.589 213.062C107.58 213.062 106.671 212.85 105.862 212.426C105.064 211.99 104.435 211.374 103.974 210.577C103.514 209.779 103.283 208.839 103.283 207.755C103.283 206.672 103.514 205.731 103.974 204.934C104.435 204.124 105.064 203.508 105.862 203.084C106.671 202.661 107.58 202.449 108.589 202.449ZM108.589 204.728C107.855 204.728 107.232 204.99 106.721 205.513C106.21 206.024 105.955 206.771 105.955 207.755C105.955 208.739 106.21 209.493 106.721 210.016C107.232 210.527 107.855 210.782 108.589 210.782C109.324 210.782 109.947 210.527 110.458 210.016C110.969 209.493 111.224 208.739 111.224 207.755C111.224 206.771 110.969 206.024 110.458 205.513C109.947 204.99 109.324 204.728 108.589 204.728ZM118.392 204.56C118.778 203.9 119.289 203.383 119.924 203.009C120.559 202.623 121.269 202.43 122.054 202.43V205.252H121.288C119.357 205.252 118.392 206.148 118.392 207.942V212.931H115.758V202.58H118.392V204.56ZM133.247 207.363C133.247 207.624 133.216 207.923 133.153 208.26H125.568C125.605 209.181 125.854 209.86 126.315 210.296C126.776 210.732 127.349 210.95 128.034 210.95C128.644 210.95 129.149 210.801 129.547 210.502C129.958 210.203 130.22 209.798 130.332 209.287H133.116C132.979 210.01 132.686 210.658 132.238 211.231C131.789 211.804 131.21 212.252 130.5 212.576C129.803 212.9 129.024 213.062 128.165 213.062C127.156 213.062 126.259 212.85 125.474 212.426C124.689 211.99 124.079 211.374 123.643 210.577C123.207 209.779 122.989 208.839 122.989 207.755C122.989 206.672 123.207 205.731 123.643 204.934C124.079 204.124 124.689 203.508 125.474 203.084C126.259 202.661 127.156 202.449 128.165 202.449C129.186 202.449 130.077 202.661 130.837 203.084C131.609 203.508 132.2 204.093 132.612 204.841C133.035 205.575 133.247 206.416 133.247 207.363ZM130.594 207.101C130.631 206.254 130.407 205.613 129.921 205.177C129.448 204.741 128.862 204.523 128.165 204.523C127.455 204.523 126.857 204.741 126.371 205.177C125.885 205.613 125.617 206.254 125.568 207.101H130.594ZM137.303 210.184V212.931H134.463V210.184H137.303Z" fill="white"/>
<path d="M556.975 -26.2755C523.055 42.1029 433.748 158.346 347.879 76.2921C262.01 -5.76197 130.574 42.1029 75.5894 76.2921" stroke="white" stroke-width="1.4919"/>
<path d="M51.2319 353.223C44.5056 353.223 41.1424 348.751 41.1424 339.808C41.1424 330.889 44.5056 326.43 51.2319 326.43C54.7944 326.43 57.3603 327.626 58.9298 330.017C60.4993 332.409 61.284 335.672 61.284 339.808C61.284 343.968 60.4993 347.244 58.9298 349.636C57.3603 352.027 54.7944 353.223 51.2319 353.223ZM55.0809 346.086C55.7535 344.616 56.0898 342.523 56.0898 339.808C56.0898 337.117 55.7535 335.05 55.0809 333.605C54.4331 332.135 53.1501 331.4 51.2319 331.4C49.2887 331.4 47.9808 332.135 47.3082 333.605C46.6605 335.05 46.3366 337.117 46.3366 339.808C46.3366 342.523 46.6605 344.616 47.3082 346.086C47.9808 347.531 49.2887 348.253 51.2319 348.253C53.1501 348.253 54.4331 347.531 55.0809 346.086ZM74.2448 325.832C76.0384 325.832 77.5705 326.143 78.8411 326.766C80.1365 327.389 81.1081 328.248 81.7558 329.345C82.4284 330.441 82.7648 331.661 82.7648 333.007C82.7648 334.701 82.3039 336.096 81.3821 337.192C80.4604 338.263 79.2397 338.923 77.72 339.173V339.359C81.407 340.456 83.2506 342.623 83.2506 345.861C83.2506 348.129 82.4907 349.972 80.9711 351.392C79.4514 352.787 77.309 353.485 74.5437 353.485C71.604 353.485 69.2623 352.762 67.5184 351.317C65.7746 349.847 64.803 347.643 64.6037 344.703H69.7605C69.8851 346.048 70.3211 347.12 71.0684 347.917C71.8407 348.689 72.9244 349.075 74.3195 349.075C75.5153 349.075 76.4495 348.751 77.1221 348.104C77.7948 347.431 78.1311 346.559 78.1311 345.488C78.1311 344.217 77.6453 343.246 76.6737 342.573C75.7021 341.9 74.2697 341.564 72.3763 341.564H71.2926V337.267H72.3763C75.8641 337.317 77.6079 336.108 77.6079 333.642C77.6079 332.571 77.2965 331.736 76.6737 331.138C76.0509 330.516 75.2039 330.204 74.1326 330.204C73.0116 330.204 72.0898 330.565 71.3674 331.288C70.6449 331.985 70.2339 332.969 70.1342 334.24H64.9774C65.1268 331.549 65.9988 329.482 67.5932 328.037C69.1876 326.567 71.4047 325.832 74.2448 325.832Z" fill="#141414" fill-opacity="0.2"/>
<rect x="46.3978" y="49.6305" width="43.2073" height="43.2073" rx="14.4024" fill="url(#paint1_linear_1_464)"/>
<path d="M70.1252 69.0982C68.301 67.2741 65.3434 67.2741 63.5193 69.0982L58.8482 73.7693C57.0241 75.5934 57.0241 78.551 58.8482 80.3752C60.6724 82.1993 63.6299 82.1993 65.4541 80.3752L66.7405 79.0888M65.8548 73.3686C67.679 75.1927 70.6365 75.1927 72.4607 73.3686L77.1317 68.6975C78.9559 66.8733 78.9559 63.9158 77.1317 62.0916C75.3076 60.2675 72.35 60.2675 70.5259 62.0916L69.2418 63.3757" stroke="#4ABFFF" stroke-width="2.33553" stroke-linecap="round" stroke-linejoin="round"/>
<path d="M308.501 297.261C296.834 285.594 277.918 285.594 266.251 297.261L236.376 327.136C224.709 338.803 224.709 357.719 236.376 369.386C248.043 381.053 266.959 381.053 278.626 369.386L286.853 361.159M281.189 324.573C292.856 336.24 311.772 336.24 323.439 324.573L353.314 294.698C364.981 283.031 364.981 264.115 353.314 252.448C341.647 240.781 322.731 240.781 311.064 252.448L302.851 260.661" stroke="#0D0D0D" stroke-opacity="0.2" stroke-width="14.9377" stroke-linecap="round" stroke-linejoin="round"/>
</g>
<defs>
<linearGradient id="paint0_linear_1_464" x1="10.0002" y1="10.5" x2="462.993" y2="100.138" gradientUnits="userSpaceOnUse">
<stop stop-color="#30B5FF"/>
<stop offset="1" stop-color="#010C1D"/>
<stop offset="1" stop-color="#0C314F"/>
</linearGradient>
<linearGradient id="paint1_linear_1_464" x1="68.0015" y1="49.6305" x2="89.6051" y2="92.8378" gradientUnits="userSpaceOnUse">
<stop stop-color="#F7EFFF"/>
<stop offset="1" stop-color="#E5CDFF"/>
</linearGradient>
<clipPath id="clip0_1_464">
<rect x="0.859619" width="368.43" height="376.604" rx="20.4359" fill="white"/>
</clipPath>
</defs>
</svg>
